<svg width="1725" height="950" viewBox="0 0 1725 950" fill="none" xmlns="http://www.w3.org/2000/svg">
<g opacity="0.1">
<path d="M1075.06 525.719C1061.65 534.401 1044.11 536.97 1028.55 532.58C1026.81 532.092 1024.91 531.377 1024.12 529.816C1022.93 527.475 1024.84 524.808 1025.18 522.239C1026.17 514.792 1015.07 511.573 1011.56 504.906C1010.16 502.272 1010.06 499.183 1009.82 496.256C1007.68 470.078 993.375 446.502 981.355 422.893C980.504 421.169 979.585 419.316 979.959 417.43C980.334 415.543 982.581 413.917 984.318 414.861C983.024 419.316 985.884 424.486 990.447 425.982C992.524 418.373 993.681 408.357 986.531 404.454C984.113 403.121 981.185 402.893 978.393 402.763C967.36 402.243 956.26 402.828 945.364 404.519C943.525 404.812 941.55 405.072 939.95 404.194C938.554 403.414 937.839 401.885 936.851 400.617C934.161 397.203 927.045 395.349 923.265 398.308C919.077 401.625 922.278 408.844 914.208 409.82C909.645 410.373 905.252 408.162 901.268 405.983C896.978 403.674 892.619 401.267 889.487 397.625C888.397 396.325 887.41 394.861 885.912 393.983C883.051 392.26 879.408 393.203 876.037 393.17C872.666 393.138 868.58 390.796 869.465 387.707C869.738 386.764 870.487 385.983 871.066 385.138C875.288 378.959 869.704 370.114 862.315 367.87C854.926 365.626 846.958 367.87 839.569 370.081C828.502 373.431 817.436 376.748 806.336 380.097C802.147 381.366 797.755 382.634 793.43 381.886C789.719 381.236 785.837 379.154 782.466 380.715C777.869 382.829 778.618 389.365 775.86 393.463C773.204 397.365 767.552 398.633 764.828 402.503C761.661 406.991 763.534 412.942 763.228 418.34C762.581 428.714 753.625 436.616 745.76 443.835C737.894 451.054 729.926 460.42 731.935 470.664C732.548 473.818 734.114 476.777 734.353 479.964C734.523 482.598 733.808 485.2 733.059 487.769C730.743 495.834 728.462 503.866 726.146 511.931C733.876 525.003 742.457 537.621 751.752 549.685C756.349 555.636 761.219 561.555 767.586 565.782C773.953 570.01 782.057 572.351 789.549 570.465C792.886 569.62 796.018 567.929 799.491 567.604C804.292 567.116 809.025 569.295 813.861 569.099C819.513 568.872 824.382 565.522 828.911 562.303C833.44 559.083 838.377 555.767 843.995 555.604C849.648 555.441 855.709 560.124 854.517 565.392C854.245 566.53 853.666 567.701 853.836 568.839C854.211 571.343 857.616 572.221 860.203 571.864C862.825 571.538 865.617 570.595 868.001 571.701C871.236 573.229 871.61 577.587 870.521 580.871C869.057 585.327 865.958 589.099 863.881 593.326C861.804 597.554 860.953 602.919 863.915 606.627C865.447 608.545 867.763 609.748 869.635 611.342C872.802 614.009 874.675 617.748 876.207 621.488C882.779 637.52 884.209 655.373 880.566 672.186C878.965 679.632 873.994 685.681 872.428 692.543C870.691 700.282 877.127 708.932 880.94 715.241C886.729 724.834 890.134 735.728 890.883 746.785C891.155 751.175 891.087 755.793 893.198 759.727C894.799 762.654 897.455 764.93 899.668 767.467C908.079 777.288 909.134 790.913 909.849 803.563C911.62 805.807 915.297 805.807 917.953 804.604C920.643 803.401 922.788 801.319 925.376 799.986C931.914 796.637 939.882 798.393 947.237 797.58C959.903 796.214 971.038 786.198 973.217 774.198C973.83 770.881 973.83 767.369 975.328 764.313C977.576 759.695 983.024 756.573 983.739 751.533C984.011 749.549 983.5 747.468 983.943 745.484C985.373 739.273 995.35 737.322 996.201 730.98C996.61 727.956 994.669 725.159 993.443 722.33C989.766 713.94 992.864 703.339 1000.53 697.973C1003.39 695.957 1006.76 694.656 1009.69 692.705C1023.78 683.372 1023.48 663.113 1017.52 647.763C1015.2 641.78 1012.21 635.731 1012.65 629.325C1012.92 625.13 1014.69 621.13 1016.73 617.423C1021.91 608.057 1029.06 599.7 1037.61 593.001C1043.19 588.643 1049.63 584.709 1052.79 578.53C1054.73 574.758 1055.28 570.465 1056.81 566.498C1059.6 559.279 1065.39 553.62 1069.92 547.279C1074.65 540.97 1078.02 532.84 1075.06 525.719ZM992.932 681.681C992.558 684.315 989.459 686.787 987.076 685.421C986.974 678.397 985.407 671.438 983.841 664.576C983.092 661.292 982.309 657.975 981.56 654.69C981.219 653.162 980.708 651.438 979.278 650.69C978.257 650.17 976.929 650.235 975.975 649.585C974.545 648.609 974.647 646.495 973.49 645.227C971.957 643.601 969.063 644.186 967.122 643.016C965.181 641.878 964.739 639.406 964.466 637.26L961.538 613.423C961.436 612.513 961.333 611.505 961.844 610.724C962.423 609.846 963.547 609.488 964.568 609.131C968.927 607.537 972.604 604.318 974.647 600.318C975.499 598.594 976.077 596.773 977.269 595.245C981.525 589.749 987.212 591.375 987.689 596.773C988.37 604.253 985.237 603.31 980.844 605.944C977.473 607.96 971.685 611.342 969.369 614.724C965.862 619.797 968.961 621.228 971.378 626.138C973.592 630.723 971.481 636.87 974.988 640.642C977.269 643.081 981.049 643.536 983.943 645.292C988.472 648.024 990.14 653.584 990.447 658.657C990.753 663.763 990.038 668.966 991.4 673.909C992.081 676.511 993.307 679.047 992.932 681.681Z" fill="#B1C7EF"/>
<path d="M1036.79 692.575C1033.93 697.583 1039.79 703.404 1039.31 709.094C1038.83 714.948 1031.99 718.59 1030.56 724.313C1029.98 726.655 1030.39 729.126 1030.97 731.468C1032.06 735.955 1033.69 740.345 1035.84 744.508C1036.52 745.841 1037.3 747.174 1038.42 748.183C1041.93 751.304 1047.99 750.264 1051.4 747.044C1054.8 743.825 1056.13 739.077 1056.85 734.557C1057.56 730.004 1057.83 725.322 1059.74 721.127C1062.5 714.98 1068.59 709.81 1068.25 703.143C1068.08 699.826 1066.24 696.77 1065.46 693.55C1064.64 690.298 1065.32 686.168 1068.53 684.803C1068.87 686.916 1069.21 689.063 1069.55 691.176C1078.6 688.477 1067.5 659.925 1057.66 674.364C1053.68 680.25 1057.63 684.217 1049.66 687.241C1045.44 688.867 1039.38 688.054 1036.79 692.575Z" fill="#D4DEEF"/>
<path d="M1724.85 183.648C1724.61 182.672 1723.79 181.925 1723.01 181.242C1717.56 176.461 1711.5 172.331 1704.96 169.047C1709.08 168.722 1713.34 168.331 1716.98 166.445C1720.66 164.592 1723.59 160.852 1723.04 156.917C1722.12 150.218 1712.18 146.316 1713.17 139.617C1713.65 136.593 1716.37 133.568 1714.91 130.869C1713.85 129.016 1711.36 128.528 1709.15 128.268C1697.64 126.804 1686.17 125.308 1674.62 123.845C1675.13 128.04 1673.91 132.69 1670.37 135.227C1666.79 137.731 1660.77 136.918 1659.06 133.016C1658.48 131.65 1658.45 130.056 1657.46 128.886C1655.42 126.382 1651.27 127.845 1648.1 128.983C1641.32 131.487 1633.59 131.487 1626.85 128.951C1625.56 128.43 1624.13 127.747 1623.58 126.512C1622.77 124.658 1624.13 122.642 1624.23 120.658C1624.4 117.244 1620.72 114.61 1617.15 114.284C1613.61 113.992 1610.13 115.358 1606.73 116.431C1596.82 119.488 1585.04 119.91 1576.9 113.699C1574.48 111.878 1572.51 109.537 1569.88 107.976C1566.21 105.764 1561.71 105.309 1557.42 104.886C1546.32 103.813 1535.22 102.74 1524.12 101.634C1523.07 101.537 1521.84 101.472 1520.92 102.057C1519.49 103.065 1519.73 105.114 1519.25 106.74C1518.37 109.894 1514.62 111.553 1511.22 111.78C1507.78 112.008 1504.34 111.228 1500.93 111.618C1498.41 111.878 1495.93 112.789 1493.41 112.626C1490.85 112.496 1488.06 110.772 1488.13 108.366C1484.93 110.285 1482.82 113.732 1482.72 117.341C1476.25 118.024 1468.11 113.602 1469.54 107.52C1469.91 105.96 1470.87 104.561 1471.04 102.968C1471.89 93.0819 1446.28 90.8706 1440.49 95.1306C1438.93 96.3013 1437.7 97.8622 1436.2 99.0979C1429.9 104.334 1418.67 102.252 1414.85 95.1306C1405.8 94.0575 1396.6 94.1225 1387.51 95.2282C1383.83 89.2446 1374.23 92.0738 1368.1 95.8135C1361.97 99.5532 1353.02 103.195 1348.35 97.8947C1363.84 94.5453 1378.52 87.8138 1390.98 78.4482C1392.24 77.5051 1393.61 76.2369 1393.3 74.7085C1393.13 73.6679 1392.17 72.9199 1391.26 72.3021C1385.5 68.4973 1378.45 66.4811 1371.44 66.6437C1366.33 66.7413 1360.24 67.6518 1357 63.8796C1354.99 61.5707 1354.75 58.0261 1352.3 56.1075C1349.95 54.2864 1346.58 54.7091 1343.62 55.1969C1337.05 56.3351 1330.44 57.4733 1323.84 58.6115C1322.81 58.7741 1321.69 59.0017 1320.98 59.7171C1320.06 60.6927 1320.12 62.1561 1320.02 63.4893C1319.44 71.7818 1308.51 77.6678 1300.78 73.798C1298.37 72.5622 1296.32 70.6436 1293.7 69.8631C1290.4 68.9201 1286.86 69.9932 1283.59 71.0989C1269.93 75.619 1256.28 80.1392 1242.63 84.6594C1246.3 87.0333 1251.07 87.8138 1255.36 86.7406C1256.65 88.9194 1253.32 90.8706 1250.73 91.3909C1240.31 93.4721 1229.92 95.5533 1219.47 97.6021C1225.43 101.927 1231.22 106.512 1236.73 111.325C1239.42 109.537 1241.94 114.187 1240.92 117.179C1239.94 120.17 1238.06 123.878 1240.45 125.991C1237.24 124.983 1234.52 122.707 1232.95 119.813C1234.62 118.642 1236.22 117.439 1237.89 116.268C1234.25 116.984 1230.26 114.707 1229.18 111.325C1222.54 110.089 1216.2 107.358 1210.86 103.39C1209.8 105.764 1211.23 108.919 1213.82 109.797C1211.37 110.122 1208.91 110.382 1206.46 110.675C1207.28 114.317 1210.69 117.276 1214.57 117.699C1209.7 118.902 1204.22 117.797 1200.23 114.837C1203.88 109.602 1198.53 101.309 1191.99 102.025C1195.74 102.512 1196.38 107.651 1194.72 110.902C1193.05 114.187 1190.12 117.114 1190.19 120.723C1190.26 125.146 1194.58 130.479 1190.97 133.308C1195.36 136.82 1203.5 130.447 1207.18 134.576C1208.3 135.877 1208.44 137.666 1208.91 139.292C1210.35 144.17 1215.93 147.552 1221.14 146.674C1218.14 151.226 1210.99 146.739 1207.72 142.349C1204.49 137.958 1197.17 133.601 1194.31 138.251C1193.39 139.78 1193.56 141.633 1193.56 143.357C1193.39 156.007 1177.83 166.055 1165.47 161.47C1170.17 155.909 1181.23 158.12 1184.84 151.877C1186.31 149.308 1185.9 146.186 1185.45 143.324C1183.99 133.926 1182.56 124.561 1181.1 115.162C1181.95 110.837 1182.29 106.415 1182.08 102.025C1176.91 103.748 1168.57 103.521 1168.74 98.285C1164.34 105.244 1159.92 112.203 1155.52 119.162C1152.83 123.357 1150.82 129.926 1155.39 132.138C1158.45 130.934 1162.03 133.406 1162.88 136.495C1163.76 139.552 1162.64 142.771 1161.18 145.633C1154.57 128.17 1121.13 136.202 1112.42 119.618C1108.43 121.081 1112.08 126.967 1116.09 128.365C1120.15 129.764 1125.7 132.235 1124.2 136.072C1123.07 139.097 1118.72 139.097 1115.38 138.869C1105.74 138.219 1095.87 140.332 1087.42 144.885C1086.67 141.633 1085.89 138.414 1085.18 135.227C1078.16 139.975 1071.08 144.722 1064.06 149.503C1060.62 151.812 1057.02 154.186 1052.83 154.608C1048.67 154.999 1043.87 152.625 1043.33 148.657C1042.78 144.69 1048.84 141.21 1051.53 144.267C1052.69 136.983 1042.27 130.902 1036.01 135.227C1040.16 141.926 1040.26 150.771 1036.24 157.568C1034.75 160.104 1032.47 162.478 1029.47 162.933C1026.47 163.356 1023 160.885 1023.65 158.055C1019.83 161.275 1017.69 166.185 1017.96 171.031C1011.76 172.949 1004.37 170.673 1000.53 165.6C1001 168.429 1001.48 171.193 1001.96 174.022C997.495 178.608 987.723 175.291 987.28 169.047C987.144 167.193 987.655 165.372 987.655 163.519C987.655 157.21 981.832 152.527 976.52 148.722C984.454 151.584 992.422 154.478 1000.36 157.34C1004.82 158.966 1009.58 160.624 1014.25 159.746C1021.09 158.511 1025.52 149.698 1019.42 145.145C1008.49 136.983 995.895 130.837 982.547 127.162C978.699 126.121 974.579 125.243 970.8 126.414C967.701 127.357 963.547 129.243 961.878 126.577C964.977 126.999 968.314 125.861 970.425 123.617C963.955 122.252 957.418 121.374 950.812 121.048C943.185 127.52 938.009 136.658 940.222 145.893C943.627 160.072 962.9 171.974 955.851 184.851C962.491 183.42 969.438 182.022 976.009 183.616C979.551 184.429 982.99 186.445 985.305 189.111C985.271 188.981 985.305 188.819 985.339 188.689C987.314 188.071 989.425 187.42 991.434 187.941C993.443 188.461 995.078 190.705 994.056 192.461C993.375 193.697 991.57 194.705 992.217 195.973C992.626 196.753 993.75 196.883 994.601 197.144C997.052 197.859 998.415 200.883 997.291 203.062C993.784 202.867 990.276 202.704 986.735 202.542C985.543 204.981 983.943 207.322 982.819 209.761C978.086 219.972 981.526 231.679 981.934 242.833C982.104 248.557 980.742 254.93 977.78 259.873C978.495 259.743 979.21 259.581 979.925 259.483C993.171 257.337 1008.32 260.524 1016.43 270.767C1024.53 281.011 1021.81 298.604 1009.38 303.417C1004.65 305.238 999.13 305.173 994.805 307.774C993.035 308.782 991.741 310.603 991.128 312.522C999.164 308.164 1007.44 304.002 1016.53 302.376C1014.52 306.473 1010.57 309.595 1006.01 310.668C1007.54 311.611 1007.03 314.05 1005.5 314.993C1003.96 315.936 1001.99 315.774 1000.22 315.416C998.449 315.058 996.576 314.636 994.839 315.058C993.307 315.416 992.081 316.554 991.468 317.953C991.162 318.571 991.026 319.253 991.026 319.936C991.026 320.424 991.128 320.847 991.264 321.302C995.895 317.595 1003.25 317.497 1007.98 321.107C1009.79 322.505 1011.22 324.326 1013.16 325.562C1015.3 326.928 1018.1 327.546 1019.73 329.497C1021.33 331.448 1020.21 335.383 1017.69 334.863C1017.59 336.098 1018.95 336.976 1020.17 337.204C1021.43 337.432 1022.79 337.334 1023.92 337.887C1026.54 339.188 1026.06 343.22 1023.78 345.009C1021.5 346.765 1018.3 346.927 1015.34 346.927C1007.61 347.025 999.572 347.09 992.49 344.098C989.153 342.7 986.156 340.619 982.683 339.448C979.244 338.277 975.09 338.18 972.298 340.423C971.004 341.464 970.119 342.96 968.859 344.098C965.862 346.862 960.755 347.22 957.35 344.911C954.558 342.992 953.195 339.383 953.842 336.163C950.642 339.253 947.884 342.862 945.909 346.732C947.611 351.35 949.314 356 951.016 360.618C951.595 362.114 952.106 363.61 952.685 365.073C954.319 369.593 957.009 374.894 961.98 375.187C968.28 375.577 974.613 367.382 979.619 374.796C980.572 376.227 980.878 377.918 980.878 379.642C980.844 382.991 985.68 387.219 988.267 384.585C987.961 382.178 987.689 379.577 988.846 377.398C990.004 375.252 993.205 373.886 995.214 375.414C996.576 376.422 996.848 378.276 996.95 379.902C997.087 382.308 996.95 384.78 996.61 387.154C995.827 392.877 993.443 398.828 988.404 401.885C984.454 404.259 978.767 405.982 982.002 411.055C982.751 412.161 985.748 410.893 986.599 411.966C988.472 414.47 987.178 417.104 987.416 420.063C987.927 426.339 995.384 429.494 999.47 434.469C1005.12 441.298 1003.93 451.087 1006.72 459.379C1012.41 476.354 1034.81 487.248 1033.55 505.036C1033.04 511.963 1029.5 520.613 1035.46 524.613C1039.45 527.247 1044.89 525.393 1049.32 523.409C1057.56 519.767 1065.83 516.093 1074.14 512.418C1077.51 510.955 1081.09 509.263 1082.83 506.109C1083.71 504.451 1084.02 502.532 1085.28 501.101C1087.12 499.02 1090.32 498.727 1093.01 497.882C1099.1 495.931 1103.19 490.435 1106.25 485.004C1109.56 479.118 1112.14 472.874 1113.98 466.403C1114.46 464.712 1114.9 462.891 1114.46 461.168C1112.86 454.891 1101.32 454.273 1100.74 447.835C1100.5 445.136 1102.47 442.729 1103.39 440.193C1104.31 437.624 1103.29 433.851 1100.46 433.884C1098.76 438.664 1096.92 443.64 1093.14 447.152C1089.33 450.664 1082.89 452.16 1078.74 449.07C1075.64 446.794 1074.62 442.827 1072.51 439.705C1069.31 434.859 1063.45 431.933 1060.66 426.892C1057.87 421.819 1061.95 413.299 1067.5 415.478C1070.23 425.071 1077.11 433.494 1086.2 438.306C1091.82 436.485 1097.23 434.046 1102.3 431.022C1104.82 429.104 1108.16 432.713 1108.43 435.77C1108.7 438.859 1108.19 442.632 1110.82 444.42C1112.14 445.363 1113.95 445.428 1115.62 445.428C1129.27 445.428 1142.86 443.932 1156.14 440.941C1153.41 448.518 1160.73 457.623 1169.08 457.038C1168.05 460.127 1164.82 462.436 1161.41 462.468C1163.05 465.525 1164.79 468.712 1167.71 470.761C1170.64 472.777 1175.07 473.232 1177.62 470.826C1180.04 468.582 1180.35 464.387 1183.48 463.151C1187.12 461.688 1190.73 466.045 1190.43 469.818C1190.12 473.557 1187.67 476.777 1186.34 480.354C1183.68 487.606 1186.17 495.573 1188.59 502.89C1193.32 517.003 1198.22 531.474 1207.93 543.084C1211.4 539.962 1214.91 536.84 1218.38 533.718C1223.08 534.498 1223.25 540.937 1221.75 545.23C1220.22 549.587 1218.82 555.408 1222.91 557.782C1226.59 559.896 1231.49 556.514 1232.31 552.514C1233.12 548.514 1231.22 544.547 1229.35 540.872C1226.93 536.189 1224.54 531.442 1222.16 526.726C1221.34 525.1 1220.46 523.377 1220.63 521.556C1220.76 519.995 1221.55 518.596 1222.23 517.166C1224.37 512.58 1225.05 507.345 1224.1 502.402C1236.87 496.191 1247.56 486.142 1254.17 473.948C1255.19 472.126 1256.14 470.208 1257.88 468.972C1263.12 465.33 1271.94 470.435 1276.57 466.11C1283.04 468.419 1288.49 473.135 1291.56 479.053C1293.8 483.378 1295.88 489.134 1300.92 489.492C1293.19 492.516 1287.98 500.516 1288.56 508.45C1296.32 510.337 1304.9 503.312 1304.12 495.703C1307.15 494.044 1311.17 496.061 1312.8 499.02C1314.4 501.979 1314.23 505.491 1314.03 508.808C1313.45 518.857 1312.8 528.873 1312.22 538.856C1312.05 541.848 1311.92 545.067 1313.65 547.539C1315.29 549.88 1318.39 551.181 1319.51 553.782C1321.21 557.62 1317.81 562.465 1320.02 566.075C1321.21 567.993 1323.56 568.839 1325.37 570.172C1329.25 573.001 1330.54 578.009 1333.34 581.846C1336.13 585.684 1342.6 588.188 1345.63 584.513C1339.16 579.668 1335.04 572.123 1334.6 564.254C1334.49 562.465 1334.56 560.579 1333.78 558.953C1332.82 556.904 1330.78 555.571 1329.05 554.075C1318.93 545.23 1320.16 529.946 1322.24 516.971C1326.93 523.539 1334.46 528.19 1342.7 529.556C1340.04 534.759 1342.36 541.718 1347.6 544.579C1347.94 539.474 1351.96 534.824 1357.1 533.49C1359.35 532.905 1361.73 532.872 1363.84 531.994C1370.18 529.393 1370.86 521.198 1370.55 514.629C1370.45 512.028 1370.28 509.329 1368.82 507.182C1366.36 503.638 1361.43 502.792 1357.55 500.711C1350.6 496.971 1347.19 488.126 1350.02 480.939C1352.78 473.785 1361.39 469.2 1369.22 470.696C1371.81 471.769 1370.66 475.704 1368.41 477.33C1366.16 478.956 1363.06 479.931 1362.01 482.435C1360.51 485.915 1364.93 489.784 1368.78 488.971C1372.63 488.191 1375.08 484.321 1375.35 480.549C1375.59 476.809 1374.16 473.167 1372.73 469.623C1381.01 471.346 1390.13 468.582 1395.82 462.598C1397.42 460.907 1398.85 458.956 1400.93 457.818C1404.94 455.574 1410.7 456.81 1414 453.623C1416.52 451.217 1416.35 447.347 1417.13 443.997C1418.6 437.786 1423.6 433.038 1426.57 427.38C1429.49 421.722 1432.39 413.006 1430.82 406.763C1429.7 402.21 1427.21 398.08 1425.51 393.723C1424.28 390.633 1423.47 387.414 1423.02 384.097C1422.85 382.764 1422.72 381.268 1423.37 380.097C1424.52 377.951 1427.38 377.463 1429.53 376.195C1432.73 374.309 1434.4 370.374 1433.44 366.927C1424.59 369.756 1414.24 367.61 1407.43 361.528C1409.4 357.886 1413.76 356.195 1417.54 354.244C1421.36 352.326 1425.31 349.204 1425.14 345.074C1427.55 345.074 1429.94 345.074 1432.32 345.041C1432.49 348.781 1430.65 352.586 1427.55 354.895C1430.82 357.594 1435.76 355.025 1439.61 353.106C1443.45 351.187 1449.89 351.187 1450.37 355.285C1450.81 359.252 1444.54 361.919 1445.4 365.821C1449.79 364.39 1454.52 370.016 1452.14 373.821C1451.49 374.829 1450.44 375.837 1450.61 377.04C1450.81 378.504 1452.61 379.056 1453.94 379.772C1457.65 381.658 1459.29 386.536 1457.38 390.113C1459.97 388.194 1462.56 386.276 1465.15 384.324C1465.72 386.601 1468.41 388.129 1470.83 387.609C1473.22 387.056 1474.88 384.52 1474.34 382.243C1473.83 379.999 1471.65 378.438 1470.93 376.26C1469.88 372.975 1472.3 369.333 1471.1 366.114C1470.18 363.577 1467.36 362.244 1465.04 360.65C1462.76 359.057 1460.68 356.195 1462.08 353.821C1462.9 352.358 1464.7 351.773 1466.17 350.927C1473.45 346.602 1475.02 334.277 1483.6 334.017C1485.34 333.952 1487.04 334.472 1488.71 334.245C1493.58 333.594 1495.28 327.936 1497.6 323.741C1502.67 314.441 1514.45 309.92 1519.8 300.717C1523.88 293.661 1523.41 285.043 1525.82 277.271C1527.59 271.645 1530.93 265.792 1528.85 260.231C1526.3 253.304 1514.59 251.939 1510.36 258.085C1511.05 254.605 1511.73 251.158 1512.44 247.646C1509.89 255.516 1492.86 248.426 1507.67 240.719C1517.55 235.614 1526.4 228.59 1533.52 220.265C1535.94 217.436 1538.22 214.411 1541.38 212.363C1553.03 204.851 1569.07 214.151 1582.69 210.899C1583.16 212.167 1583.61 213.468 1584.08 214.736C1580.41 216.2 1576.8 217.663 1573.15 219.127C1580.85 222.574 1589.12 214.411 1597.6 214.736C1600.09 214.834 1603.66 214.834 1603.8 212.525C1601.52 212.2 1598.56 210.997 1598.96 208.818C1599.1 208.038 1599.71 207.387 1600.29 206.834C1602.51 204.59 1604.72 202.379 1606.97 200.135C1610.68 196.396 1616.7 192.396 1620.96 195.648C1624.16 198.119 1622.7 204.07 1618.65 204.883C1621.3 207.42 1625.8 205.111 1628.45 202.542C1631.11 200.005 1634.51 196.948 1638.05 198.249C1639.04 196.363 1639.04 194.054 1638.12 192.201C1640.95 190.705 1644.42 190.347 1647.52 191.258C1645.65 192.753 1644.35 194.965 1643.98 197.274C1643.71 198.769 1643.84 200.33 1643.37 201.761C1641.66 207.159 1634.1 207.777 1628.76 210.281C1619.36 214.639 1616.06 226.151 1607.61 231.972C1605.54 233.435 1603.19 234.508 1601.45 236.329C1597.74 240.264 1598.21 246.378 1599.92 251.418C1601.69 256.459 1604.55 261.304 1604.85 266.572C1604.92 267.58 1604.89 268.556 1604.79 269.531C1604.41 273.044 1608.94 275.027 1611.53 272.523C1612.14 271.905 1612.79 271.287 1613.4 270.702C1616.4 267.743 1619.53 264.686 1621.06 260.849C1622.12 258.117 1622.59 254.8 1625.22 253.369C1627.16 252.329 1629.58 252.784 1631.75 252.394C1633.97 252.069 1636.32 249.922 1635.19 248.036C1631.58 245.597 1632.23 239.419 1636.22 237.63C1637.88 238.378 1639.55 239.126 1641.22 239.906C1645.17 238.183 1639.21 231.972 1641.36 228.362C1642.17 226.964 1644.18 226.118 1644.11 224.525C1644.05 222.541 1641.12 222.183 1639.04 222.509C1637.68 216.037 1642.34 208.981 1649.02 207.387C1648.88 208.72 1648.78 210.086 1648.68 211.419C1651.98 209.436 1655.28 207.452 1658.59 205.403C1659.17 206.932 1659.74 208.46 1660.32 210.054C1664.27 212.005 1667.37 203.387 1671.49 204.981C1672.38 205.338 1672.99 206.119 1673.74 206.672C1676.7 208.981 1681.98 207.225 1682.8 203.647C1685.86 190.152 1703.02 189.534 1717.39 188.396C1721.04 188.168 1725.63 186.77 1724.85 183.648ZM1089.77 348.228C1087.35 350.309 1083.88 350.862 1080.65 350.374C1079.86 350.992 1080.44 352.293 1081.29 352.781C1082.14 353.301 1083.23 353.431 1083.98 354.114C1085.31 355.35 1084.8 357.431 1085.01 359.187C1085.38 362.016 1087.93 364.195 1088.61 366.959C1089.84 371.935 1084.22 376.52 1078.84 376.552C1067.64 376.65 1059.77 367.967 1056.88 358.634C1055.21 353.301 1052.01 338.83 1060.59 338.017C1058 334.765 1060.73 331.188 1059.09 327.708C1058.21 325.822 1055.99 324.912 1054.5 323.416C1051.53 320.392 1051.98 315.319 1054.5 311.937C1057.02 308.555 1061.07 306.571 1065.12 305.042C1069.07 303.579 1073.56 302.441 1077.45 303.969C1081.36 305.498 1083.75 310.831 1080.82 313.758C1077.65 316.912 1071.18 315.091 1068.32 318.505C1066.52 320.619 1067.13 323.936 1068.93 326.05C1070.77 328.164 1073.53 329.334 1076.19 330.31C1077.68 330.863 1079.28 331.546 1079.86 332.912C1080.78 334.993 1078.91 337.107 1077.72 339.025C1076.56 340.976 1076.8 344.391 1079.15 344.391C1081.43 344.358 1081.8 341.269 1083.06 339.448C1084.83 336.879 1089.47 337.302 1091.27 339.871C1093.11 342.472 1092.16 346.179 1089.77 348.228ZM1369.36 248.784C1368.85 249.727 1368.24 250.67 1367.9 251.678C1367.56 252.817 1367.56 254.052 1367.25 255.19C1366.36 258.605 1363.06 260.816 1360.07 262.898C1357.99 264.328 1355.91 265.922 1354.69 268.036C1354.17 268.914 1353.83 269.889 1353.26 270.767C1350.29 275.515 1341.47 276.491 1347.02 269.857C1350.46 265.727 1355.57 259.678 1359.83 256.101C1361.29 254.865 1363.06 253.857 1364.05 252.264C1365.65 249.662 1364.76 246.378 1364.87 243.353C1364.97 240.329 1367.35 236.719 1370.42 237.565C1371.54 241.24 1371.17 245.337 1369.36 248.784ZM988.54 196.266C988.574 196.591 988.574 196.883 988.54 197.241C988.438 198.412 988.199 199.517 987.791 200.591C988.267 200.623 988.71 200.623 989.085 200.591C989.766 199.127 989.323 197.729 988.54 196.266ZM965.283 268.426C970.936 268.036 975.158 264.621 977.984 259.906C972.604 261.141 967.326 263.645 965.283 268.426Z" fill="#D4DEEF"/>
<path d="M1009.55 303.481C1004.82 305.302 999.301 305.237 994.976 307.839C993.206 308.847 991.912 310.668 991.299 312.586C990.584 312.944 989.869 313.367 989.154 313.725C976.589 320.554 981.288 305.53 969.54 305.627C958.065 305.725 961.368 324.066 956.261 322.44C954.967 325.236 957.078 328.553 956.159 331.48C955.818 332.488 955.171 333.399 954.694 334.342C954.388 334.927 954.184 335.578 954.081 336.228C950.881 339.317 948.123 342.927 946.148 346.797C946.011 346.374 945.841 345.984 945.705 345.561C942.913 342.927 937.771 345.724 936.886 349.366C936.001 353.008 937.669 356.748 938.793 360.325C939.916 363.902 940.325 368.292 937.499 370.926C936.035 372.324 933.651 373.3 935.762 376.487C936.511 377.657 938.01 378.113 939.44 377.918C942.47 377.495 945.058 382.861 942.096 383.023C936.614 383.641 932.596 378.145 930.859 373.137C929.156 368.129 927.965 362.308 923.368 359.414C921.121 357.983 918.022 357.3 916.932 354.959C915.094 350.992 920.439 346.374 918.465 342.472C916.524 338.667 910.02 340.065 906.683 337.236C903.857 334.83 904.231 330.179 901.507 327.708C900.111 326.44 898.17 325.952 896.4 325.301C890.747 323.22 886.083 318.895 883.699 313.594C880.464 314.147 880.941 318.765 882.473 321.562C888.432 332.196 897.898 341.008 909.203 346.439C905.525 348.195 903.721 352.195 902.223 355.87C899.941 361.333 897.66 366.829 895.412 372.324C891.973 371.934 888.364 371.446 885.572 369.463C882.814 367.479 881.315 363.414 883.358 360.747C887.138 364.26 894.459 362.991 896.74 358.471C898.988 353.886 895.446 347.707 890.203 347.122C892.416 341.138 885.367 335.903 879.17 333.659C872.973 331.415 865.38 328.553 864.631 322.277C861.804 319.871 857.242 321.074 854.177 323.188C851.113 325.334 848.559 328.261 844.949 329.431C841.374 330.602 836.267 328.651 836.505 325.009C834.666 326.537 832.827 328.066 830.955 329.594C835.143 330.732 832.759 337.171 828.912 339.057C825.03 340.943 819.752 342.114 818.799 346.211C818.424 347.837 818.935 349.528 818.901 351.252C818.867 353.821 817.607 356.227 816.415 358.536C813.385 364.194 809.469 370.503 802.931 371.674C799.083 372.357 793.227 372.747 793.772 376.422C788.221 371.804 780.492 369.69 773.239 370.796C773.682 367.544 774.124 364.325 774.533 361.105C772.047 360.747 769.494 360.39 767.008 360.065C770.89 354.959 772.286 348.162 770.719 342.016C769.868 338.569 768.813 333.724 772.286 332.521C770.413 330.927 769.051 328.781 768.37 326.472C773.58 324.293 779.641 324.066 785.089 325.789C787.438 326.537 789.685 327.643 792.069 328.326C798.811 330.244 806.915 328.098 810.763 322.537C814.644 316.944 813.01 308.229 806.847 305.009C803.612 303.318 799.662 303.188 796.496 301.367C793.363 299.546 791.729 294.538 794.895 292.75C797.483 296.522 803.442 297.693 807.358 295.221C805.519 292.197 804.702 288.652 805.076 285.173C807.971 284.034 811.682 286.636 811.342 289.628C816.449 289.725 821.455 286.376 823.089 281.758C823.702 280.165 823.906 278.409 825.098 277.108C826.63 275.384 829.32 275.124 831.568 274.311C837.118 272.328 840.387 265.856 838.582 260.523C845.733 257.369 853.7 255.938 861.532 256.361C858.774 251.483 855.914 246.247 856.186 240.686C856.459 235.125 861.192 229.402 866.98 229.922C867.865 233.174 867.797 236.621 866.844 239.873C868.546 240.231 870.215 240.589 871.917 240.946C868.24 243.841 864.529 249.467 868.342 252.166C871.373 254.312 875.731 251.548 879.443 252.296C881.145 252.621 882.609 253.727 884.278 254.084C891.803 255.873 899.124 244.036 905.491 248.296C907.637 249.727 908.488 252.621 912.165 252.198C914.174 251.938 915.945 250.735 916.932 249.011C919.043 245.499 918.362 241.467 918.771 237.597C919.146 234.247 920.814 230.508 924.253 229.63C927.999 228.654 931.608 231.613 935.49 232.004C942.028 232.719 947.135 224.167 943.185 219.159C938.248 222.768 931.915 224.557 925.683 224.069C923.845 221.012 927.692 217.663 931.029 216.232C942.606 211.321 955.75 209.793 968.212 211.972C970.46 209.988 967.225 206.866 964.501 205.598C961.777 204.362 958.712 201.013 961.062 199.192C952.856 196.037 945.637 207.029 936.75 207.452C927.658 207.874 922.38 196.265 925.751 188.2C929.156 180.135 937.567 175.225 945.467 170.9C940.257 163.063 926.603 162.445 920.644 169.762C921.393 175.745 918.873 181.989 914.106 185.924C909.203 189.956 901.167 193.663 902.835 199.647C904.3 204.915 913.085 207.452 911.893 212.785C910.837 217.695 902.393 217.76 900.384 222.41C898.954 225.792 901.712 229.955 900.009 233.207C898.273 236.491 893.369 236.621 890.271 238.833C888.16 240.329 886.968 242.735 885.027 244.426C883.052 246.117 879.511 246.767 878.081 244.621C876.685 242.507 878.523 239.938 879.545 237.629C882.643 230.833 878.183 223.256 873.858 217.11C865.107 216.427 860.579 232.231 852.441 229.012C850.159 228.101 848.797 225.89 847.639 223.776C844.439 218.085 841.17 212.297 839.944 205.923C838.752 199.549 839.91 192.428 844.575 187.777C850.806 181.566 861.26 181.209 868.172 175.745C875.901 169.632 877.808 158.282 886.117 152.917C891.088 149.697 898.715 147.974 899.294 142.25C893.812 142.673 888.33 143.096 882.848 143.519C885.333 139.129 891.292 136.852 896.23 138.381C894.187 134.186 899.26 129.633 904.129 128.983C908.999 128.365 914.072 129.698 918.737 128.365C922.551 127.259 925.581 124.56 929.259 123.032C932.425 121.731 935.933 121.406 939.372 121.243C943.253 121.08 947.135 121.08 951.017 121.243C943.39 127.714 938.214 136.852 940.427 146.088C943.832 160.266 963.105 172.168 956.056 185.046C962.696 183.615 969.643 182.217 976.214 183.81C979.756 184.623 983.195 186.639 985.51 189.306C985.17 191.777 987.281 194.119 988.507 196.428C988.541 196.753 988.541 197.045 988.507 197.403C988.404 198.574 988.166 199.68 987.757 200.753C982.037 200.558 968.621 197.923 975.057 206.866C977.917 203.614 979.245 205.696 982.548 205.37C983.91 205.24 985.204 203.874 984.693 202.639C985.442 202.671 986.191 202.704 986.94 202.736C985.748 205.175 984.148 207.517 983.024 209.956C978.291 220.167 981.73 231.874 982.139 243.028C982.309 248.751 980.947 255.125 977.985 260.068C978.7 259.938 979.415 259.775 980.13 259.678C993.376 257.531 1008.53 260.718 1016.63 270.962C1024.7 281.043 1022.01 298.668 1009.55 303.481Z" fill="#D4DEEF"/>
<path d="M762.036 254.605C762.002 257.759 765.202 260.588 764.317 263.645C763.432 266.637 759.005 268.003 758.801 271.125C758.597 274.604 763.636 275.84 767.211 275.157C773.817 273.889 779.81 270.051 783.59 264.718C785.428 262.117 786.144 257.629 783.045 256.588C787.301 255.158 791.558 253.727 795.814 252.296C799.151 255.028 802.76 259.613 800.002 262.865C798.231 264.978 794.043 266.442 795.303 268.848C795.814 269.824 797.176 270.344 797.414 271.417C797.653 272.555 796.529 273.498 795.61 274.246C791.592 277.466 789.208 282.506 789.344 287.547C795.405 282.214 803.714 279.287 811.954 279.645C813.895 279.71 816.04 279.905 817.504 278.734C818.968 277.531 818.321 274.474 816.414 274.767C818.73 273.173 821.011 271.612 823.327 270.019C823.837 269.661 824.382 269.271 824.655 268.718C825.234 267.417 823.906 265.954 822.475 265.499C821.045 265.043 819.479 265.108 818.117 264.491C815.121 263.157 814.61 259.385 813.554 256.361C812.533 253.337 808.821 250.312 806.267 252.328C806.914 249.434 807.527 246.312 806.336 243.613C805.144 240.882 801.33 239.028 798.844 240.784C797.414 238.735 800.751 236.849 802.488 235.061C804.395 233.11 804.361 229.695 802.386 227.776C800.411 225.89 796.767 225.89 794.826 227.809C795.099 222.248 796.325 215.387 801.909 213.663C803.441 213.208 805.11 213.24 806.608 212.72C808.14 212.232 809.57 210.899 809.332 209.37C809.604 211.159 812.601 211.224 813.724 209.793C814.848 208.362 814.61 206.379 814.303 204.59C809.979 203.419 808.106 210.379 803.816 211.679C801.841 212.297 799.593 211.582 797.687 212.33C793.158 214.151 794.384 222.183 789.651 223.451C788.527 223.744 787.301 223.549 786.212 223.972C784.066 224.85 783.828 227.711 784.339 229.89C784.85 232.069 785.803 234.443 784.782 236.459C784.237 237.565 783.113 238.67 783.556 239.841C784.135 241.369 786.484 240.947 788.084 241.499C792.136 242.865 789.923 247.418 787.812 249.207C785.19 251.45 780.764 250.865 777.665 250.442C773.102 249.889 762.07 246.02 762.036 254.605Z" fill="#D4DEEF"/>
<path d="M863.302 345.074C862.758 344.651 862.213 344.196 861.668 343.773C863.371 343.383 864.528 341.692 864.63 340.001C864.733 338.31 863.983 336.684 862.996 335.318C861.804 333.66 859.761 332.066 857.786 332.749C855.232 333.594 855.198 337.009 856.05 339.448C856.901 341.887 858.093 344.716 856.56 346.797C857.514 346.57 858.569 346.862 859.25 347.545C855.573 349.822 854.688 357.008 860.136 357.431C865.584 357.854 866.639 351.187 861.157 349.952C861.225 349.626 863.371 345.106 863.302 345.074Z" fill="#D4DEEF"/>
<path d="M1480.67 401.397C1480.98 398.601 1481.29 395.316 1483.77 393.788C1484.55 395.739 1486.05 397.398 1487.93 398.471C1489.63 397.528 1490.55 395.739 1491.54 394.146C1492.52 392.52 1493.88 390.861 1495.79 390.569C1497.7 390.276 1499.91 392.325 1498.89 393.918C1503.93 395.804 1507.27 388.813 1511.97 386.178C1514.45 384.813 1517.41 384.683 1520.21 384.032C1522.96 383.349 1525.89 381.658 1526.3 378.959C1526.54 377.366 1525.82 375.805 1525.76 374.211C1525.65 370.797 1528.38 368.033 1530.11 365.041C1533.18 359.87 1533.32 353.204 1530.49 347.936C1528.96 345.074 1526.57 342.538 1525.82 339.416C1525.07 336.261 1526.98 332.164 1530.35 332.229C1531.27 334.961 1532.53 338.05 1535.36 339.058C1538.18 340.099 1541.96 336.652 1539.92 334.538C1543.09 333.692 1546.42 333.432 1549.69 333.725C1551.09 331.774 1550.75 328.912 1548.94 327.286C1559.3 323.839 1568.18 317.043 1575.03 308.848C1565.6 314.441 1556.16 320.034 1546.73 325.628C1545.61 326.278 1544.28 326.961 1543.05 326.538C1541.93 326.115 1541.39 324.945 1540.84 323.937C1538.29 319.384 1532.97 316.392 1527.56 316.49C1528 320.782 1528.45 325.107 1528.89 329.4C1525.69 328.847 1522.76 331.741 1522.01 334.765C1521.26 337.79 1522.01 340.977 1522.28 344.066C1523.24 354.992 1517.82 366.212 1508.53 372.65C1508.49 370.894 1508.46 369.106 1508.42 367.35C1503.52 368.033 1505.77 376.78 1501.34 378.959C1500.08 379.577 1498.62 379.447 1497.22 379.577C1490.28 380.26 1490.41 387.089 1482.92 384.357C1482.17 393.04 1470.63 391.512 1471.45 400.259C1472.13 407.674 1479.41 413.332 1480.67 401.397Z" fill="#B1C7EF"/>
<path d="M1541.45 263.906C1541.59 264.524 1541.69 265.174 1541.59 265.825C1541.38 267.028 1540.4 268.004 1540.06 269.174C1539.44 271.223 1540.81 273.337 1542.44 274.833C1544.04 276.296 1546.02 277.564 1547.04 279.45C1548.77 282.605 1547.55 286.962 1550 289.629C1549.22 291.45 1546.32 290.897 1544.65 289.759C1542.98 288.621 1540.91 287.125 1539.1 288.068C1536.96 290.995 1538.15 295.027 1539.85 298.214C1541.52 301.401 1543.7 304.653 1543.39 308.197C1543.22 309.856 1541.9 311.807 1540.19 311.417C1539.55 311.254 1539 310.799 1538.52 310.344C1536.21 308.23 1533.79 305.856 1533.35 302.832C1533.04 300.62 1533.86 298.442 1534.44 296.295C1535.63 291.873 1535.87 287.19 1535.12 282.67C1534.81 280.719 1534.3 278.8 1534.37 276.816C1534.51 273.174 1536.52 269.109 1534.3 266.15C1533.62 265.239 1532.5 264.199 1533.01 263.158C1533.96 261.305 1538.18 257.792 1539.68 256.329C1540.64 258.736 1540.98 261.37 1541.45 263.906Z" fill="#B1C7EF"/>
<path d="M1300.85 571.863C1303.95 574.042 1307.83 575.635 1309.67 578.887C1311.07 581.391 1311.07 584.676 1313.25 586.66C1314.41 587.7 1316.04 588.22 1317.2 589.229C1319.96 591.667 1319.34 595.895 1320.67 599.244C1322.54 603.992 1328.33 606.789 1329.42 611.764C1329.8 613.455 1329.59 615.276 1330.34 616.87C1331.8 619.862 1336.03 620.48 1338.38 622.918C1339.53 624.122 1340.18 625.683 1341.17 626.983C1344 630.723 1349.85 631.991 1354.07 629.78C1352.58 627.569 1351.72 624.967 1351.66 622.366C1351.62 620.805 1351.86 619.244 1351.52 617.715C1350.77 614.041 1347.09 611.472 1346.07 607.83C1347.81 606.626 1350.06 608.382 1351.35 610.008C1352.64 611.634 1354.79 613.488 1356.59 612.382C1353.32 608.285 1349.58 604.545 1345.46 601.228C1345.8 602.724 1343.69 603.797 1342.19 603.277C1340.69 602.757 1339.81 601.326 1339.02 600.025C1338.44 599.017 1337.83 597.944 1337.93 596.806C1338.04 595.862 1338.62 595.017 1338.79 594.074C1339.16 592.09 1337.66 590.237 1335.99 589.066C1334.29 587.895 1332.32 587.082 1330.85 585.651C1327.92 582.822 1327.41 577.879 1323.73 575.993C1321.96 575.083 1319.85 575.083 1318.05 574.237C1312.53 571.538 1311.44 563.733 1305.14 561.327C1296.26 557.88 1294.35 567.278 1300.85 571.863Z" fill="#B1C7EF"/>
<path d="M1356.18 631.016C1354.86 632.772 1353.56 634.528 1352.24 636.284C1351.96 636.674 1351.66 637.064 1351.66 637.552C1351.66 638.853 1353.63 639.048 1354.96 638.885C1359.25 638.332 1363.61 638.528 1367.83 639.503C1374.91 641.129 1381.65 644.901 1388.91 644.446C1390 644.381 1391.12 644.218 1392.21 644.381C1393.4 644.544 1394.46 645.096 1395.62 645.389C1398.27 646.137 1401.23 645.714 1403.55 644.283C1401.61 642.495 1398.54 642.625 1395.82 642.43C1393.1 642.235 1389.9 641.064 1389.55 638.463C1389.45 637.78 1389.62 637.032 1389.42 636.349C1389.01 634.885 1387.27 634.17 1385.71 634.072C1384.14 633.975 1382.54 634.333 1381.01 634.04C1378.42 633.552 1376.41 631.276 1373.86 630.918C1371.24 630.56 1370.11 632.479 1368 632.577C1363.68 632.739 1360.24 625.585 1356.18 631.016Z" fill="#B1C7EF"/>
<path d="M1417.68 645.715C1419.96 645.747 1422.21 647.471 1424.32 646.723C1424.86 646.528 1425.34 646.202 1425.92 646.137C1426.63 646.072 1427.28 646.495 1427.93 646.755C1434.19 649.519 1441.38 641.65 1447.81 644.024C1446.32 649.845 1438.25 651.698 1435.08 656.869C1440.53 656.121 1445.7 653.454 1449.35 649.487C1450.33 648.414 1451.25 647.243 1452.51 646.463C1453.23 646.007 1454.04 645.747 1454.79 645.292C1456.5 644.251 1457.52 642.268 1457.38 640.349C1455.51 640.316 1453.64 640.739 1452 641.617C1450.78 642.268 1449.69 643.146 1448.32 643.438C1446.08 643.926 1443.86 642.69 1441.58 642.398C1436.78 641.747 1432.12 646.528 1427.76 645.747C1426.02 645.422 1425.14 643.568 1422.96 643.048C1421.19 642.625 1418.36 643.341 1416.35 643.081C1414.1 642.788 1409.47 640.609 1407.77 642.885C1402.76 649.584 1416.45 645.682 1417.68 645.715Z" fill="#B1C7EF"/>
<path d="M1416.45 652.121C1417.41 651.08 1419.28 651.731 1420.23 652.771C1421.19 653.812 1421.8 655.178 1423.03 655.926C1424.25 656.641 1425.99 656.511 1427.08 655.568C1427.72 655.015 1428.1 654.104 1427.79 653.356C1427.45 652.576 1426.57 652.218 1425.75 651.958C1424.97 651.698 1424.15 651.405 1423.37 651.145C1421.97 650.69 1420.51 650.202 1419.04 650.397C1417.58 650.592 1416.11 651.665 1416.11 653.096" fill="#B1C7EF"/>
<path d="M1377.36 611.732C1374.74 611.992 1371.27 612.22 1370.25 609.878C1369.63 608.512 1370.31 606.952 1370.35 605.456C1370.42 603.017 1368.78 600.87 1367.59 598.724C1365.51 594.919 1364.8 590.497 1365.51 586.269C1365.68 585.196 1365.99 584.091 1366.77 583.31C1367.28 582.822 1367.93 582.497 1368.54 582.172C1371 580.936 1373.45 579.7 1375.9 578.497C1379.1 576.904 1382.33 575.278 1385.33 573.359C1392.86 568.546 1399.02 561.815 1402.97 554.043C1404.33 552.644 1406.88 553.945 1407.8 555.669C1408.72 557.36 1408.96 559.441 1410.36 560.807C1412.54 562.888 1417.27 563.343 1416.9 566.27C1416.76 567.408 1415.74 568.254 1414.89 569.099C1411.96 572.058 1410.73 576.481 1411.79 580.416C1412.84 584.351 1416.08 587.7 1420.13 588.968C1416.42 589.294 1411.65 590.692 1411.65 594.237C1411.65 596.48 1413.73 598.822 1412.44 600.708C1411.11 602.659 1407.53 601.748 1405.93 603.504C1404.67 604.935 1405.45 607.082 1405.73 608.935C1406.41 613.585 1402.63 618.366 1397.79 619.081C1395.75 619.374 1393.37 618.854 1392.35 617.13C1391.8 616.22 1391.73 615.146 1391.29 614.203C1389.52 610.399 1386.83 612.675 1384.21 612.642C1382.37 612.61 1379.81 611.472 1377.36 611.732Z" fill="#B1C7EF"/>
<path d="M1449.62 584.481C1450.06 584.35 1450.47 584.188 1450.91 584.058C1449.99 583.472 1448.73 583.668 1447.81 584.285C1446.89 584.903 1446.28 585.781 1445.53 586.594C1442.98 589.326 1439.03 590.822 1435.21 590.497C1432.8 590.301 1430.41 589.423 1428.03 589.846C1425.14 590.367 1422.92 592.87 1422.07 595.57C1421.63 596.935 1422.04 599.017 1423.54 598.887C1424.35 596.448 1426.67 594.659 1429.22 593.879C1431.78 593.098 1434.53 593.228 1437.19 593.684C1439.27 594.041 1441.34 594.594 1443.42 594.334C1445.5 594.074 1447.64 592.708 1447.88 590.724C1448.05 589.293 1447.27 587.732 1447.92 586.399C1448.49 585.261 1450.06 584.253 1449.45 583.115C1448.77 583.245 1450.3 584.35 1449.62 584.481Z" fill="#D4DEEF"/>
<path d="M1417.61 616.61C1418.56 620.739 1420.57 625.032 1419.01 628.967C1420.74 629.715 1422.82 628.316 1423.4 626.593C1423.98 624.869 1423.54 622.983 1423.09 621.227C1422.65 619.471 1422.21 617.585 1422.85 615.862C1422.99 615.471 1423.26 615.049 1423.71 614.951C1423.91 614.919 1424.15 614.951 1424.35 615.016C1426.7 615.666 1428.3 617.78 1429.05 620.024C1429.8 622.235 1429.83 624.609 1430.18 626.918C1430.38 628.349 1430.79 629.942 1432.08 630.723C1434.16 632.056 1437.12 630.268 1437.9 627.991C1438.69 625.715 1438.04 623.243 1437.73 620.87C1437.26 617.585 1437.02 613.618 1433.96 611.992C1432.7 611.341 1430.96 611.049 1430.55 609.715C1430.07 608.155 1432.01 606.919 1433.65 606.464C1435.15 606.041 1436.68 605.748 1438.25 605.553C1440.08 605.325 1442.5 604.838 1442.67 603.082C1442.88 601.228 1440.42 600.317 1438.52 600.025C1436.24 599.667 1433.89 599.277 1431.57 599.569C1429.26 599.862 1426.94 600.903 1425.71 602.789C1425.44 603.179 1425.2 603.667 1424.76 603.829C1424.11 604.09 1423.4 603.634 1423.02 603.082C1422.65 602.529 1422.45 601.878 1422.04 601.358C1417 595.505 1417.24 615.016 1417.61 616.61Z" fill="#B1C7EF"/>
<path d="M1459.15 612.512C1456.6 611.927 1453.91 611.992 1451.42 612.675C1450.98 612.805 1450.44 613.032 1450.4 613.488C1450.37 613.976 1450.95 614.268 1451.42 614.366C1453.84 614.984 1456.5 614.723 1458.71 613.65C1458.37 612.707 1457.08 612.219 1456.16 612.675" fill="#B1C7EF"/>
<path d="M1470.05 611.212C1468.79 610.594 1467.12 610.756 1466.03 611.634C1464.94 612.512 1464.47 614.041 1464.91 615.342C1467.46 615.959 1470.02 613.098 1472.43 614.041C1474.03 614.659 1474.82 616.74 1476.55 616.837C1478.02 616.902 1479.04 614.951 1478.12 613.878C1477.34 612.968 1475.84 612.968 1474.89 612.22C1473.15 610.854 1474.24 608.187 1475.4 606.366C1473.46 605.976 1472.03 608.122 1471.75 610.008C1471.65 610.821 1471.62 611.699 1471.24 612.447C1470.83 613.195 1469.88 613.748 1469.1 613.39" fill="#B1C7EF"/>
<path d="M1459.26 599.83C1459.22 600.513 1459.22 601.196 1459.53 601.814C1459.83 602.399 1460.62 602.854 1461.26 602.561C1461.74 602.366 1462.01 601.846 1462.18 601.391C1462.83 599.895 1463.51 598.139 1462.76 596.676C1462.42 596.025 1461.84 595.472 1461.57 594.789C1460.82 592.708 1463.44 591.602 1465.11 591.765C1464.7 589.131 1462.39 590.985 1462.39 588.155C1462.39 587.733 1467.53 585.847 1463.24 585.164C1457.69 584.221 1459.39 596.35 1459.26 599.83Z" fill="#D4DEEF"/>
<path d="M1482.41 596.578C1479.82 596.773 1477 596.708 1474.99 595.147C1473.08 596.675 1474.34 599.83 1476.45 601.098C1478.56 602.366 1481.18 602.594 1483.36 603.732C1485.54 604.87 1487.18 607.764 1485.61 609.585C1487.35 610.008 1489.12 610.463 1490.85 610.886C1491.26 612.447 1489.39 613.585 1487.99 614.463C1486.56 615.341 1485.44 617.553 1486.9 618.365C1487.59 619.764 1489.76 619.536 1491.19 618.788C1492.62 618.04 1494.12 617 1495.66 617.455C1496.64 617.748 1497.32 618.626 1498.07 619.309C1501.17 622.333 1505.87 623.048 1509.85 624.902C1513.8 626.755 1517.41 631.243 1515.27 634.95C1514.45 636.349 1512.99 637.259 1511.9 638.462C1510.81 639.666 1510.06 641.519 1511.01 642.82C1514.49 643.048 1518.06 641.974 1520.78 639.893C1523.58 642.755 1526.91 645.454 1530.93 646.267C1534.95 647.113 1539.75 645.519 1541.32 641.877C1541.62 641.161 1541.83 640.349 1542.47 639.861C1543.36 639.178 1544.65 639.405 1545.78 639.698C1549.15 640.609 1552.45 641.779 1555.65 643.21C1556.27 643.47 1556.91 643.796 1557.18 644.381C1557.59 645.226 1557.08 646.169 1556.95 647.113C1556.44 650.527 1560.86 652.478 1564.4 653.064C1569.2 653.877 1574.07 654.299 1578.98 654.332C1579.15 651.99 1576.49 650.397 1574.11 649.877C1571.72 649.356 1569.03 649.291 1567.2 647.73C1565.05 645.877 1564.85 642.527 1562.6 640.804C1560.9 639.503 1557.93 638.657 1558.38 636.641C1558.85 634.463 1562.84 634.755 1563.62 632.674C1564.1 631.373 1562.9 630.007 1561.58 629.52C1560.25 629.032 1558.75 629.129 1557.32 628.869C1553.78 628.219 1550.89 625.227 1550.54 621.813C1550.41 620.512 1550.58 619.146 1550.03 617.975C1549.22 616.187 1547.04 615.406 1545.06 614.788C1534.64 611.569 1524.22 608.382 1513.84 605.163C1512.34 604.707 1510.71 604.252 1509.24 604.74C1505.26 606.073 1505.53 612.935 1501.34 613.65C1499.2 614.04 1497.26 612.382 1495.76 610.854C1494.26 609.358 1492.11 607.211 1491.94 605.065C1491.81 603.569 1493.41 602.268 1493.27 600.935C1492.59 595.797 1486.5 596.285 1482.41 596.578Z" fill="#B1C7EF"/>
<path d="M1563.38 627.926C1563.69 628.349 1564.23 628.544 1564.78 628.707C1569.1 629.845 1573.9 629.39 1577.89 627.406C1579.18 626.788 1580.44 625.975 1581.87 625.845C1582.82 625.748 1583.78 625.943 1584.73 625.845C1585.68 625.748 1586.71 625.227 1586.88 624.349C1587.05 623.471 1586.37 622.463 1586.91 621.748C1587.49 621 1588.85 621.292 1589.5 620.577C1590.21 619.796 1589.36 618.626 1588.58 617.91C1585.38 615.016 1582.25 611.894 1578.81 609.26C1578.5 613.39 1581.67 618.171 1578.26 621.715C1576.29 623.764 1562.36 626.398 1563.38 627.926Z" fill="#B1C7EF"/>
<path d="M1606.05 640.869C1607.61 641.357 1609.28 641.584 1610.85 642.202C1612.38 642.788 1613.88 643.861 1614.32 645.389C1614.32 645.324 1614.32 645.259 1614.29 645.194C1613.74 641.129 1609.42 638.593 1605.57 636.674C1605.06 636.414 1604.55 636.154 1604.28 635.666C1604.11 635.308 1598.96 638.625 1606.05 640.869Z" fill="#D4DEEF"/>
<path d="M1651.23 719.631C1650.86 717.94 1650.21 716.249 1649.05 714.948C1647.89 713.615 1646.06 712.736 1644.28 712.964C1642.75 716.184 1645.41 719.858 1648.47 721.874C1650.62 723.273 1653.07 724.183 1655.52 724.996C1652.46 725.484 1651.74 721.874 1651.23 719.631Z" fill="#D4DEEF"/>
<path d="M1661.31 690.201C1662.74 693.518 1663.76 696.965 1664.38 700.477C1666.08 699.534 1666.56 697.062 1665.33 695.599C1666.56 696.64 1666.56 698.428 1666.86 699.957C1667.61 703.989 1670.95 707.501 1675.1 708.542C1675.75 707.338 1675.2 705.875 1674.32 704.834C1673.43 703.794 1672.21 703.078 1671.19 702.168C1669.28 700.444 1668.12 697.973 1668.02 695.469C1667.92 693.193 1668.36 690.331 1666.28 689.225C1665.91 690.201 1665.57 691.176 1665.19 692.152C1664.58 692.087 1664.21 691.534 1663.97 691.014C1662.54 687.729 1663.97 683.014 1660.73 680.64C1660.22 682.104 1659.27 683.599 1657.57 683.795C1657.57 686.168 1660.36 687.957 1661.31 690.201Z" fill="#D4DEEF"/>
<path d="M1619.67 641.91C1622.05 642.885 1625.12 642.528 1626.92 644.284C1628.69 646.04 1628.32 648.999 1629.81 650.95C1630.53 651.861 1631.59 652.478 1632.37 653.356C1633.15 654.234 1633.56 655.633 1632.78 656.478C1631.79 657.584 1629.78 656.901 1629.03 655.665C1628.28 654.43 1628.35 652.901 1628.18 651.47C1628.01 650.039 1627.36 648.479 1625.93 647.991C1624.57 647.535 1622.77 648.251 1621.78 647.21C1621.47 646.853 1621.34 646.397 1621.17 645.975C1619.77 642.462 1615.1 640.739 1614.29 637.194C1616.13 638.625 1617.28 640.934 1619.67 641.91Z" fill="#D4DEEF"/>
<path d="M1480.26 636.056C1477.88 638.007 1475.7 640.186 1473.83 642.593C1475.26 643.275 1477.13 642.918 1478.22 641.78C1479.28 640.641 1479.41 638.82 1478.56 637.52" fill="#B1C7EF"/>
<path d="M1496.1 626.528C1497.49 627.536 1498.79 628.967 1498.82 630.658C1498.86 632.349 1497.12 634.072 1495.45 633.52C1495.79 631.113 1496.1 628.707 1496.44 626.3" fill="#B1C7EF"/>
<path d="M1480.95 663.112C1479.72 660.641 1476.04 659.6 1473.59 661.031C1475.74 662.722 1475.94 666.201 1474 668.12C1473.01 669.096 1471.65 669.649 1470.53 670.494C1466.82 673.226 1466.64 679.339 1470.22 682.266C1468.48 683.111 1466.78 683.99 1465.04 684.835C1463.82 680.51 1460.35 676.803 1455.99 675.177C1450.03 678.754 1445.57 684.575 1443.83 691.079C1443.15 691.209 1442.43 691.306 1441.75 691.436C1441.45 693.355 1441.11 695.274 1440.8 697.225C1439.27 695.274 1438.66 692.672 1439.13 690.298C1435.52 690.981 1433.51 694.623 1432.53 698.005C1431.54 701.387 1430.96 705.127 1428.34 707.599C1426.43 709.42 1423.74 710.233 1421.19 710.981C1417.24 712.151 1413.29 713.289 1409.34 714.46C1406.07 715.403 1402.53 716.574 1400.79 719.37C1399.36 721.614 1398.44 725.224 1395.72 724.931C1394.56 724.801 1393.67 723.891 1392.52 723.63C1390.2 723.078 1388.12 725.517 1388.02 727.793C1387.92 730.069 1389.04 732.248 1389.69 734.459C1390.3 736.671 1390.27 739.402 1388.36 740.833C1390.54 740.963 1392.82 741.776 1394.12 743.467C1395.41 745.158 1395.41 747.825 1393.74 749.158C1392.07 750.524 1388.91 749.743 1388.53 747.662C1393.33 760.15 1396.74 773.157 1398.65 786.328C1399.43 791.726 1399.87 797.514 1397.15 802.295C1401.91 805.709 1408.83 806.067 1413.97 803.173C1416.83 801.547 1419.11 799.01 1422.11 797.612C1427.32 795.173 1433.65 796.571 1439.23 794.978C1444.34 793.514 1448.46 789.58 1453.74 788.702C1457.69 788.051 1462.12 789.124 1465.56 787.206C1467.19 786.295 1468.38 784.799 1469.98 783.791C1471.75 782.653 1473.9 782.198 1476.01 782.1C1484.42 781.645 1493.03 787.173 1494.94 795.01C1495.42 796.961 1495.49 799.043 1496.3 800.896C1497.12 802.75 1498.96 804.441 1501.04 804.246C1501.55 798.1 1507.68 792.897 1514.11 793.092C1514.42 795.075 1512.92 796.896 1511.35 798.197C1509.79 799.498 1507.95 800.701 1507.13 802.555C1506.31 804.408 1507.23 807.107 1509.31 807.238C1510.37 805.319 1511.83 803.628 1513.57 802.262C1516.84 805.059 1515.3 811.205 1511.05 812.245C1515.13 811.107 1520.89 810.717 1522.28 814.554C1522.66 815.628 1522.56 816.831 1522.66 817.969C1523.27 823.92 1529.77 827.399 1535.46 829.838C1536.62 830.326 1537.88 830.847 1539.1 830.651C1541.25 830.294 1542.41 828.115 1543.67 826.424C1544.93 824.7 1547.48 823.204 1549.15 824.603C1550.58 825.806 1549.97 828.147 1551.12 829.578C1552.66 831.529 1556.06 830.489 1557.73 828.635C1559.4 826.782 1560.39 824.31 1562.57 822.977C1566.58 820.538 1573.9 822.457 1575.1 818.034C1575.74 815.628 1573.63 813.416 1572.95 811.042C1571.86 807.303 1574.41 803.498 1577.31 800.799C1580.2 798.1 1583.71 795.758 1585.41 792.246C1588.27 786.393 1585.28 779.434 1586.43 773.06C1587.59 766.653 1592.9 760.312 1590.11 754.394C1589.02 752.085 1586.81 750.329 1585.89 747.922C1585 745.614 1585.38 742.817 1583.71 740.931C1582.65 739.728 1581.02 739.175 1579.73 738.264C1575.33 735.24 1575.2 729.191 1573.53 724.281C1570.46 715.338 1561.68 709.485 1555.58 702.07C1554.46 700.704 1553.41 699.241 1552.93 697.55C1552.38 695.599 1552.62 693.518 1552.45 691.501C1552.04 686.591 1548.94 681.941 1544.45 679.534C1543.46 679.014 1542.41 678.559 1541.69 677.713C1540.7 676.51 1540.77 674.852 1540.7 673.323C1540.5 667.567 1538.12 661.909 1534.1 657.649C1531.44 670.266 1528.75 682.884 1526.1 695.501C1524.56 696.64 1522.66 697.322 1520.72 697.485C1519.93 694.266 1519.18 691.046 1518.4 687.827C1514.59 688.022 1510.6 688.152 1507.17 686.559C1503.76 684.965 1501.24 680.933 1502.77 677.616C1503.62 675.795 1505.5 673.778 1504.27 672.185C1507.68 673.421 1510.64 668.12 1508.15 665.584C1504.24 661.584 1499.91 667.372 1495.86 667.177C1490.85 666.787 1486.36 660.055 1480.95 663.112Z" fill="#B1C7EF"/>
<path d="M1553.3 859.789C1553.27 860.732 1553.23 861.87 1554.09 862.325C1554.43 862.52 1554.83 862.553 1555.21 862.586C1558.07 862.781 1561.71 862.423 1562.67 859.821C1563.45 857.74 1561.95 855.334 1562.77 853.285C1563.04 852.602 1563.52 852.017 1563.96 851.431C1565.02 849.903 1565.63 848.017 1565.12 846.261C1564.61 844.505 1562.73 843.074 1560.86 843.432C1559.84 843.627 1558.99 844.277 1557.97 844.537C1554.73 845.35 1545.47 838.749 1546.25 846.163C1546.49 848.472 1549.86 850.293 1551.09 852.212C1552.59 854.423 1553.4 857.09 1553.3 859.789Z" fill="#B1C7EF"/>
<path d="M1660.29 872.764C1658.14 873.447 1655.76 873.74 1653.99 875.04C1652.18 876.341 1651.37 879.268 1653.14 880.601C1654.5 881.642 1656.51 881.219 1658.18 881.739C1661.89 882.877 1662.23 887.69 1661.86 891.397C1664.44 892.471 1667.3 890.292 1668.73 887.95C1670.16 885.609 1671.15 882.812 1673.57 881.414C1675.13 880.471 1677.21 880.243 1678.37 878.878C1680 876.959 1678.91 874.065 1679.53 871.658C1681.06 865.61 1690.19 865.089 1692.6 859.171C1694.31 855.073 1697.4 847.041 1692.3 846.196C1679.56 844.049 1671.25 869.284 1660.29 872.764Z" fill="#D4DEEF"/>
<path d="M1700.2 850.391C1700.2 850.716 1700.2 851.041 1700.37 851.334C1700.81 852.017 1701.93 851.724 1702.58 851.236C1706.29 848.31 1704.04 842.098 1706.9 838.391C1707.86 837.155 1709.25 836.375 1710.51 835.432C1714.5 832.408 1716.98 827.595 1717.02 822.717C1715.18 823.66 1713.27 824.635 1711.2 824.928C1709.12 825.221 1706.8 824.636 1705.54 823.042C1704.01 821.058 1704.52 818.132 1703.09 816.115C1701.42 813.774 1697.81 813.449 1695.84 811.335C1694 809.417 1693.97 806.555 1693.56 803.986C1693.15 801.417 1691.75 798.49 1689.06 798.132C1683.72 803.986 1694.2 811.303 1695.57 816.311C1696.86 821.091 1694.27 822.424 1692.3 826.457C1690.22 830.652 1688.82 833.936 1692.98 837.188C1695.63 839.269 1697.85 836.082 1700.16 839.952C1701.49 842.131 1700.23 847.919 1700.2 850.391Z" fill="#D4DEEF"/>
<path d="M1421.05 500.288C1420.75 501.101 1420.47 501.947 1420.47 502.792C1420.54 505.751 1424.12 507.768 1424.35 510.694C1424.46 511.865 1424.01 513.036 1424.01 514.206C1424.01 515.377 1424.76 516.743 1426.02 516.743C1427.08 516.743 1427.83 515.8 1428.58 515.084C1429.33 514.369 1430.76 513.914 1431.33 514.759C1431.61 515.117 1431.57 515.637 1431.54 516.06C1431.2 519.214 1430.31 522.304 1428.88 525.198C1430.65 525.881 1432.73 524.775 1433.72 523.214C1434.71 521.653 1434.88 519.735 1435.01 517.914C1435.08 517.003 1435.15 516.06 1434.77 515.215C1434.2 513.946 1432.76 513.296 1431.85 512.255C1430.11 510.304 1430.28 507.377 1431.27 505.004C1432.25 502.63 1433.89 500.548 1434.88 498.174C1435.15 497.557 1435.35 496.906 1435.25 496.223C1435.15 495.54 1434.71 494.955 1434.4 494.337C1433.62 492.809 1433.55 491.053 1433.21 489.362C1430.18 474.728 1421.97 497.719 1421.05 500.288Z" fill="#D4DEEF"/>
<path d="M1450.37 523.084C1450.71 525.816 1449.52 528.645 1447.3 530.401C1446.79 530.791 1446.25 531.149 1445.94 531.702C1444.89 533.555 1447.34 535.311 1449.11 536.58C1454.62 540.579 1455.31 549.36 1450.44 554.075C1449.99 554.53 1449.48 554.953 1449.18 555.506C1448.9 556.059 1448.87 556.677 1448.84 557.294C1448.8 560.059 1449.31 562.855 1450.37 565.424C1447.51 566.79 1443.9 564.546 1442.81 561.652C1441.72 558.758 1442.33 555.571 1442.88 552.547C1443.08 551.408 1443.22 550.173 1442.57 549.23C1441.48 547.701 1438.86 548.026 1437.5 549.327C1436.13 550.66 1435.69 552.547 1435.15 554.335C1434.6 556.124 1433.82 557.977 1432.12 558.888C1430.82 552.709 1436.13 546.075 1442.67 545.587C1444.1 545.49 1445.64 545.62 1446.93 545.002C1448.22 544.384 1448.97 542.563 1447.92 541.62C1446.66 541.653 1446.18 540.059 1446.28 538.889C1446.38 537.718 1446.59 536.254 1445.6 535.539C1444.58 534.824 1443.05 535.572 1442.37 536.612C1441.69 537.653 1441.48 538.921 1440.8 539.962C1439.78 541.523 1437.74 542.401 1435.83 542.075C1435.73 539.344 1437.43 536.612 1439.98 535.409C1437.7 534.628 1435.35 533.393 1434.47 531.246C1433.58 529.1 1435.15 526.076 1437.53 526.271C1438.38 528.385 1439.23 530.499 1440.12 532.612C1441.99 533.718 1444.61 532.612 1445.7 530.791C1446.79 528.97 1446.69 526.726 1446.38 524.645C1448.8 525.848 1451.63 522.564 1450.61 520.125C1450.03 518.727 1448.7 517.751 1447.34 517.588C1448.87 518.987 1450.13 521.003 1450.37 523.084Z" fill="#D4DEEF"/>
<path d="M1085.31 119.618C1086.98 118.48 1085.72 115.748 1083.78 115.13C1081.84 114.512 1079.76 115.13 1077.72 115.163C1075.68 115.228 1073.22 114.285 1073.02 112.366C1072.95 111.781 1073.12 111.228 1073.33 110.675C1074.76 107.456 1078.74 106.155 1081.36 103.716C1085.45 99.9113 1085.79 93.635 1089.36 89.4075C1094.3 83.5541 1103.66 83.2939 1110 78.8062C1111.97 77.4079 1113.64 75.5868 1115.72 74.2861C1121.06 70.9041 1128.01 71.4569 1134.45 71.2943C1142.86 71.0667 1151.23 69.3757 1159 66.3188C1157.36 73.7658 1148.03 76.5624 1140.3 78.416C1135.09 79.6843 1129.95 81.1151 1124.88 82.7411C1118.41 84.8223 1111.94 87.2938 1106.66 91.3912C1101.38 95.4886 1097.37 101.537 1097.26 108.041C1097.23 111.456 1101.49 118.837 1099.14 121.504C1096.31 124.626 1088.34 120.919 1085.31 119.618Z" fill="#D4DEEF"/>
<path d="M1281.99 32.694C1280.05 33.2793 1278.11 33.8972 1276.13 34.4825C1277.94 37.1166 1281.65 38.4173 1284.78 37.5068C1288.08 36.5312 1291.28 33.4419 1294.38 34.9053C1295.2 36.3361 1293.36 37.7344 1291.86 38.5149C1290.36 39.2954 1288.8 41.1164 1290.02 42.2546C1290.33 42.5148 1290.7 42.6774 1291.11 42.7749C1297.92 44.8562 1305.65 43.1001 1312.16 45.8968C1314.2 46.7748 1316.17 48.1406 1318.42 48.043C1320.67 47.9455 1322.78 45.2464 1321.21 43.6855C1320.19 42.6774 1318.15 42.6448 1317.74 41.3116C1316.99 38.8401 1323.09 37.832 1321.89 35.5556C1317.5 35.6857 1313.08 35.8158 1308.68 35.9459C1307.18 35.9784 1305.35 35.8483 1304.7 34.5476C1304.32 33.8321 1304.46 32.8891 1303.95 32.2387C1303.34 31.4582 1302.11 31.4582 1301.06 31.5558C1298.74 31.7834 1296.39 32.0111 1294.08 32.2387C1299.18 31.7509 1305.86 29.1494 1310.96 27.9787C1304.22 20.6618 1284.64 21.5398 1281.99 32.694Z" fill="#D4DEEF"/>
<path d="M1343.52 43.3924C1343.42 40.6607 1339.47 39.4575 1336.88 40.6282C1334.29 41.7989 1332.72 44.3029 1330.99 46.4817C1328.88 49.0832 1326.32 51.2945 1323.8 53.5059C1330.48 52.6929 1337.15 51.8474 1343.82 51.0344C1346.41 50.7092 1349.51 49.9938 1350.26 47.6524C1347.67 45.9614 1344.64 44.8883 1341.54 44.5631" fill="#D4DEEF"/>
<path d="M1518.5 82.0254C1519.35 81.5376 1520.14 80.8872 1521.09 80.627C1524.91 79.5864 1528.14 84.9196 1531.99 84.0741C1533.62 83.7164 1534.78 82.2855 1536.35 81.7327C1539.99 80.3994 1544.08 84.0416 1547.55 81.7977C1552.08 78.871 1550.14 76.3345 1546.56 75.0012C1543.29 73.798 1538.22 75.0663 1534.54 74.0582C1531.82 73.3102 1529.47 71.8794 1526.88 70.8062C1520.82 68.3348 1511.18 64.1723 1507.06 71.6517C1503.35 78.3832 1511.59 85.9927 1518.5 82.0254Z" fill="#D4DEEF"/>
<path d="M1572.41 80.2046C1569.72 78.0909 1566.58 76.4975 1563.25 75.5219C1562.77 75.3918 1562.29 75.2617 1561.78 75.2617C1560.01 75.3268 1558.89 77.4405 1559.47 79.0665C1560.04 80.6599 1561.78 81.7005 1563.52 81.9932C1565.25 82.3184 1567.06 82.0908 1568.83 81.9607C1572.58 81.7005 1576.32 81.9932 1579.96 82.8062C1580.65 80.5624 1578.36 78.3185 1575.95 78.0259C1573.53 77.7332 1571.18 78.7413 1568.97 79.7169" fill="#D4DEEF"/>
<path d="M1538.12 93.1474C1536.04 92.2043 1533.83 91.5539 1531.58 91.1962C1530.39 91.0011 1528.62 91.4889 1528.89 92.6271C1529.03 93.1148 1529.5 93.4075 1529.98 93.6351C1533.08 95.2611 1536.38 96.4968 1539.79 97.4074C1541.35 97.8301 1543.53 97.8627 1544.08 96.3668C1544.45 95.3262 1543.67 94.253 1542.78 93.5701C1540.64 91.8791 1537.57 91.2938 1534.92 92.0417" fill="#D4DEEF"/>
<path d="M874.88 46.482C877.774 48.1079 881.315 48.4331 884.312 49.8965C887.819 51.62 890.407 54.937 891.088 58.6442C891.497 60.9205 891.292 63.4245 892.62 65.3431C894.527 68.1398 899.124 68.3349 901.916 66.3187C904.708 64.3025 905.866 60.7579 905.866 57.4084C905.866 54.7744 905.389 51.7176 907.33 49.8965C908.181 49.116 909.339 48.7258 910.463 48.3681C912.642 47.6527 914.957 47.0023 917.239 47.36C919.52 47.7177 921.699 49.5063 921.665 51.7176C921.597 54.3841 918.499 56.8556 919.724 59.2295C924.117 59.1645 928.544 59.0994 932.936 59.0669C934.468 57.6035 933.379 54.937 931.574 53.7988C929.769 52.6606 927.522 52.4005 925.547 51.555C923.572 50.7095 921.699 48.7908 922.244 46.8072C923.061 43.7829 927.556 44.1731 930.825 44.2707C939.542 44.5633 947.578 36.7262 947.067 28.4338C939.338 27.2956 935.524 35.3929 929.088 37.5066C923.776 39.2627 920.882 36.3034 916.013 36.7262C910.837 37.1815 909.611 40.3358 905.628 41.2464C899.43 42.6772 894.936 39.718 888.5 38.905C883.529 38.2546 861.736 39.1001 874.88 46.482Z" fill="#B1C7EF"/>
<path d="M796.904 11.231C792.001 19.3608 783.659 25.572 774.193 28.1085C769.732 29.3117 764.76 29.8645 761.389 32.9213C759.312 34.8075 758.121 37.409 756.997 39.9455C754.784 44.9209 752.536 50.0265 752.434 55.4247C752.298 60.8229 754.818 66.6438 759.891 68.9852C752.809 72.3347 752.094 83.5213 758.734 87.6513C756.044 94.0901 744.705 90.4804 739.359 95.1957C735.205 98.8379 736.805 105.407 739.325 110.252C741.844 115.098 745.011 120.496 742.968 125.536C735.375 122.707 727.782 119.878 720.154 117.049C717.294 122.967 725.534 130.317 731.527 127.162C725.773 137.048 710.45 135.097 699.656 139.78C688.147 144.755 681.95 157.6 670.338 162.315C664.618 164.624 658.114 164.754 652.394 167.096C646.673 169.47 641.77 175.746 644.46 181.112C645.005 182.185 645.822 183.225 645.652 184.396C645.516 185.632 644.358 186.477 643.37 187.258C634.041 194.867 633.938 208.363 634.585 220.07C631.248 222.444 626.549 219.224 624.711 215.647C622.872 212.07 621.919 207.712 618.411 205.599C614.904 203.485 610.205 204.493 606.391 202.997C602.884 201.631 600.671 198.379 598.628 195.355C594.848 189.632 591.035 183.908 587.255 178.185C584.054 173.372 580.785 168.364 579.9 162.738C579.015 157.112 581.126 150.609 586.438 148.007C590.183 146.153 596.244 143.357 593.554 140.267C592.941 139.585 592.022 139.259 591.137 138.934C584.259 136.593 577.414 134.284 570.536 131.943C573.226 124.04 582.794 118.935 591.239 120.918C594.338 116.171 587.153 110.968 581.296 111.065C575.44 111.163 568.902 113.179 564.135 109.927C568.561 104.041 568.323 95.6835 564.748 89.2772C561.172 82.8709 554.771 78.2532 547.825 75.3265C544.726 74.0257 541.423 73.0176 538.052 72.9526C532.706 72.8875 527.564 75.2289 522.219 75.2614C514.659 75.2939 507.747 70.6112 503.389 64.6927C499.03 58.7742 496.817 51.685 494.672 44.7584C500.767 47.9778 508.803 48.1729 514.489 44.3031C520.176 40.4333 522.491 32.3035 518.779 26.6451C526.475 24.9866 534.204 23.3607 541.9 21.7022C543.841 21.2794 545.85 20.8567 547.518 19.8161C549.663 18.5153 551.127 16.369 553.068 14.8081C556.814 11.8163 561.99 11.166 566.859 10.6456C579.866 9.27983 592.873 7.88151 605.881 6.5157C608.366 6.25554 610.954 5.99539 613.372 6.61325C619.773 8.23922 625.562 15.6536 631.316 12.4992C631.555 10.0928 630.806 7.62135 629.239 5.70271C636.56 2.48331 645.005 3.45889 653.075 3.58896C669.317 3.8166 685.355 0.239478 701.597 0.0118434C717.532 -0.215791 733.468 2.84102 748.076 8.92212C743.207 12.1415 737.622 14.4179 731.8 15.5235C735.613 15.2959 739.461 15.9138 742.968 17.3446C740.176 16.2064 727.543 25.7346 725.534 27.4581C732.412 32.5636 747.531 21.9949 754.647 18.7755C768.166 12.5968 781.888 9.11724 796.904 11.231Z" fill="#D4DEEF"/>
<path d="M772.524 176.884C768.881 178.315 765.476 180.266 762.479 182.705C759.687 184.949 756.588 187.811 753.013 187.095C749.37 186.412 747.667 182.543 746.067 179.356C744.466 176.169 741.232 172.722 737.724 173.86C739.631 171.681 741.538 169.47 743.445 167.291C738.916 166.673 734.353 166.023 729.825 165.405C728.701 165.242 727.509 165.047 726.794 164.234C725.092 162.348 727.645 159.519 730.131 158.804C735.784 157.21 742.015 159.649 746.237 163.519C748.008 165.145 750.255 167.226 752.536 166.316C754.035 165.698 754.682 164.039 755.669 162.836C758.087 159.909 762.581 159.519 766.463 159.942C773.035 160.657 786.11 156.072 788.664 163.584C791.558 172.006 777.802 174.836 772.524 176.884Z" fill="#B1C7EF"/>
<path d="M207.455 119.195C190.294 126.024 172.486 132.821 153.928 132.593C145.858 132.496 137.89 131.065 129.99 129.666C112.761 126.577 95.3611 123.455 79.3573 116.691C75.0669 114.87 70.7766 112.789 66.1117 112.529C60.9019 112.236 55.8625 114.252 51.1635 116.464C36.9644 123.195 23.9571 132.203 12.8566 143.032C24.3998 144.755 35.1257 150.999 42.0379 160.007C36.5898 162.543 29.2349 160.202 26.4428 155.064C19.1219 153.048 10.5752 158.576 9.86018 165.828C9.14512 173.08 16.3979 180.039 23.9912 179.388C26.6811 175.974 30.8353 173.665 35.2959 173.112C37.373 176.462 39.4841 179.844 41.5612 183.193C37.9178 187.388 31.5163 187.843 25.932 189.047C20.3477 190.25 14.0824 193.989 14.7294 199.42C15.785 208.461 33.968 209.208 33.1848 218.281C33.4572 215.192 71.0149 212.818 52.832 233.403C49.9717 236.622 45.7154 238.964 41.3229 238.606C42.5487 241.923 42.2763 246.02 39.5522 248.362C36.8282 250.703 31.4823 249.858 30.631 246.443C27.7027 252.394 19.7008 253.792 12.8566 254.443C12.0394 257.077 11.2222 259.678 10.439 262.312C9.89423 259.028 5.36551 257.109 2.40311 258.833C-0.559282 260.556 -0.831687 265.239 1.85831 267.32C4.34399 269.272 8.02145 268.784 11.1882 268.231C12.3799 268.003 13.7419 267.678 14.2527 266.637C14.5592 265.987 14.457 265.239 14.4911 264.556C14.5932 261.109 17.7599 258.378 21.1309 257.142C24.5019 255.906 28.2134 255.776 31.7206 254.996C37.5433 253.695 42.787 250.671 47.4179 247.093C52.4914 243.191 57.0202 238.606 62.7747 235.679C64.988 234.573 67.3375 233.728 69.4486 232.46C85.0097 223.224 75.101 207.257 98.1192 204.526C98.4597 207.582 96.2464 210.704 93.1818 211.582C100.571 216.785 108.641 200.396 117.29 203.322C119.741 204.135 121.308 206.379 123.385 207.81C127.266 210.477 132.476 210.314 137.243 210.704C156.277 212.265 173.609 225.728 179.091 243.191C187.4 240.85 194.346 249.337 198.466 256.622C205.31 268.654 212.154 280.653 218.965 292.685C223.289 300.327 227.681 308.034 229.929 316.457C233.164 328.489 231.87 341.269 234.866 353.366C237.863 365.464 247.635 377.756 260.608 377.398C262.719 396.324 268.508 414.893 277.634 431.803C273.173 436.095 280.324 442.502 286.419 444.193C292.514 445.884 300.516 450.176 297.86 455.672C305.044 448.062 295.885 436.551 287.168 430.6C278.451 424.649 268.202 414.795 273.65 405.95C276.612 403.088 281.856 406.438 283.252 410.243C284.648 414.047 284.512 418.567 287.338 421.592C289.79 424.226 293.808 424.909 296.974 426.697C308.517 433.234 306.1 451.867 317.268 458.956C321.354 461.558 326.734 462.143 330.242 465.395C332.795 467.737 333.953 471.054 335.622 474.013C341.478 484.484 353.294 490.435 364.428 495.736C367.663 497.297 370.932 498.825 374.167 500.386C392.758 509.264 411.35 518.174 429.942 527.052C431.712 527.897 433.789 528.775 435.662 528.06C443.289 525.166 427.694 512.19 434.198 507.378C425.072 503.183 415.947 498.955 406.821 494.76C412.508 489.915 413.257 480.647 408.422 474.988C411.793 474.24 414.585 471.509 415.3 468.289C411.282 464.29 403.927 467.607 400.794 472.257C397.662 476.94 396.402 482.793 392.214 486.598C382.679 495.215 365.824 486.077 362.147 474.045C358.47 462.013 362.692 449.266 364.088 436.778C364.667 431.738 365.109 426.014 369.264 422.893C378.798 415.738 392.861 430.795 403.961 426.112C408.217 424.323 410.703 419.998 414.687 417.754C421.565 413.852 430.929 417.462 435.73 423.608C440.497 429.754 441.825 437.624 443.051 445.201C445.298 448.745 451.564 444.843 451.223 440.713C450.883 436.583 447.307 433.494 444.958 430.014C438.965 421.137 441.689 407.934 450.746 401.885C458.816 396.519 472.062 394.406 472.607 385.04C472.947 378.992 466.921 374.016 466.682 367.967C466.478 362.634 470.7 358.179 474.65 354.407C485.819 343.708 496.953 333.009 508.122 322.31C510.744 319.806 513.91 317.107 517.588 317.498C521.265 317.888 523.342 323.709 519.835 324.879C532.979 325.367 550.617 322.343 551.672 309.791C546.36 314.246 540.061 317.595 533.319 319.579C532.604 313.628 534.443 307.417 538.324 302.669C533.421 294.604 521.708 292.393 512.378 295.157C503.048 297.921 495.591 304.49 488.474 310.864C499.2 298.799 513.502 288.686 529.982 286.864C536.179 286.182 542.819 286.572 548.199 283.58C555.69 279.418 562.33 268.881 569.889 272.979C564.373 282.214 558.857 291.482 553.341 300.718C559.3 300.295 565.258 299.872 571.183 299.449C573.601 303.384 574.793 308.002 574.52 312.587C581.807 312.099 591.818 307.514 588.583 301.27C586.915 298.084 582.624 297.303 579.764 295.059C571.898 288.881 578.027 276.231 574.078 267.255C572.103 262.768 567.778 259.711 563.862 256.622C547.109 243.516 534 226.216 526.134 206.965C524.228 211.55 522.116 216.363 517.962 219.289C513.808 222.216 506.998 222.281 504.274 218.086C502.776 215.777 502.878 212.883 502.095 210.314C500.324 204.428 494.433 200.688 488.985 197.502C482.345 193.599 474.548 189.567 467.193 192.006C459.838 194.445 458.135 207.062 465.831 208.233C458.68 208.493 458.919 219.094 463.005 224.72C467.091 230.346 472.811 237.338 468.895 243.061C465.422 248.134 456.637 247.646 453.13 252.719C449.759 257.597 453.436 263.906 455.99 269.206C458.544 274.507 458.476 282.865 452.483 284.003C447.341 284.978 443.63 279.287 442.677 274.377C441.178 266.637 442.234 258.28 438.454 251.288C434.675 244.297 422.553 241.012 418.739 247.971C416.662 240.882 410.635 234.931 403.246 232.752C397.253 230.964 390.579 231.517 384.893 228.98C376.38 225.175 372.566 215.842 369.536 207.355C380.636 201.274 392.486 194.445 397.457 183.193C398.785 180.169 399.671 176.754 402.19 174.51C404.472 172.494 407.673 171.779 410.192 170.055C412.712 168.332 414.312 164.527 412.065 162.511C415.334 160.592 419.318 159.877 423.097 160.462C429.567 168.82 409.75 183.063 419.079 188.429C424.085 191.323 429.533 185.372 432.121 180.364C436.173 181.925 440.225 183.486 444.311 185.047C449.555 180.982 443.392 173.21 437.399 170.283C431.406 167.324 423.813 162.023 426.809 156.267C432.189 156.17 437.535 156.072 442.915 155.974C443.255 151.064 439.85 146.154 435.015 144.56C437.773 140.495 440.531 136.43 443.289 132.365C440.77 129.731 436.718 128.528 433.074 129.406C443.936 127.878 454.56 124.691 464.401 120.041C472.437 128.821 480.03 137.991 487.078 147.519C488.202 149.048 489.394 150.739 489.326 152.592C489.224 156.69 484.048 158.413 480.336 160.43C476.591 162.413 474.343 168.754 478.498 169.763C477.919 172.787 473.186 172.754 470.496 171.063C467.806 169.372 465.354 166.673 462.153 166.868C456.092 167.194 457.08 177.437 462.903 179.161C468.725 180.884 474.65 177.307 479.587 173.893C490.926 183.681 504.478 191.128 519.018 195.615C513.161 194.445 508.871 188.364 509.96 182.738C516.77 184.624 523.274 187.551 529.097 191.42C534.034 185.664 527.701 177.307 521.231 173.21C514.761 169.08 506.623 163.974 507.645 156.592C516.158 156.397 524.602 161.015 528.688 168.137C531.923 163.747 535.124 159.389 538.359 154.999C534.715 143.487 511.459 146.999 509.007 135.195C508.53 132.918 509.007 130.317 507.509 128.463C505.193 125.601 500.528 127 496.749 126.902C483.537 126.512 475.501 105.342 463.311 110.22C468.419 101.082 453.913 89.5376 445.435 95.9764C450.1 97.6349 455.173 99.9437 456.876 104.399C458.578 108.854 453.607 114.968 449.282 112.626C444.89 110.285 447.001 103.651 444.583 99.4234C441.655 94.2854 432.768 95.326 429.227 100.074C425.651 104.822 426.094 111.293 427.524 116.984C424.596 116.919 421.633 116.854 418.705 116.789C418.058 108.821 419.692 100.724 423.336 93.5374C419.897 88.627 412.031 93.3423 408.251 98.0251C404.268 102.935 400.147 108.106 398.888 114.22C397.628 120.333 400.25 127.65 406.345 129.829C410.26 131.227 414.755 130.349 418.671 131.813C427.558 135.162 424.051 150.999 414.517 150.641C411.554 146.024 409.852 140.658 409.545 135.26C404.949 136.56 400.658 138.837 397.083 141.894C392.418 130.902 385.914 120.593 377.912 111.488C379.819 107.976 381.726 104.464 383.633 100.952C391.294 104.139 401.101 96.3016 399.194 88.562C392.827 86.871 386.153 85.1475 379.683 86.5458C373.247 87.9441 367.255 93.5699 368.174 99.8136C368.719 103.553 371.511 106.675 372.532 110.35C373.554 113.992 371.273 119.13 367.357 118.512C365.314 127.39 385.029 127.618 385.914 136.69C386.527 143.064 377.504 145.536 370.83 145.471C372.771 151.584 372.464 158.348 369.979 164.299C364.973 155.324 367.697 143.032 376.142 136.788C371.102 129.374 359.389 127.032 351.659 131.878C354.554 136.105 359.151 139.26 364.258 140.528C361.568 143.52 358.844 146.511 356.154 149.503C350.297 145.471 342.261 148.625 335.077 149.048C327.858 149.438 319.107 141.861 324.215 136.951C319.89 134.447 314 133.601 309.879 136.398C305.759 139.227 305.419 146.381 310.016 148.397C300.447 150.739 284.58 133.926 277.668 146.804C273.343 133.699 266.363 129.796 252.64 129.113C243.515 128.658 216.513 122.219 211.848 129.536C211.099 128.496 207.285 119.26 207.455 119.195Z" fill="#B1C7EF"/>
<path d="M232.789 84.822C227.613 85.3423 224.719 90.9031 224.038 95.846C223.391 100.789 223.867 106.09 221.314 110.447C220.701 111.52 219.884 112.528 219.679 113.764C219.1 117.244 223.833 119.455 227.443 118.902C238.032 117.276 244.706 103.456 255.262 105.179C255.364 107.878 255.466 110.61 255.569 113.309C262.549 113.374 269.495 112.398 276.169 110.447C278.212 111.715 277.054 115 274.909 116.008C272.764 117.016 270.176 116.691 267.759 116.886C265.341 117.114 262.617 118.349 262.345 120.626C267.01 119.325 271.845 118.024 276.612 118.902C281.379 119.78 285.908 123.552 285.771 128.17C279.029 127.877 272.253 128.105 265.545 128.886C269.223 133.081 275.931 132.593 281.617 133.178C287.304 133.763 294.08 138.121 292.071 143.259C299.8 135.487 312.671 132.885 323.023 136.983C325.61 138.023 328.062 139.422 330.82 139.942C333.578 140.462 336.813 139.877 338.345 137.633C339.878 135.389 338.345 131.585 335.553 131.682C339.197 131.194 342.363 128.43 343.215 125.048C336.983 126.999 329.458 123.682 326.938 117.894C324.657 112.658 326.019 105.894 321.899 101.765C325.474 102.805 329.016 98.7402 328.164 95.2607C327.313 91.7811 323.397 89.6348 319.652 89.5373C317.2 89.4722 314.578 90.2527 313.114 92.1388C311.65 94.0249 311.922 97.1468 314.067 98.3175C311.207 96.9842 308.313 95.6509 305.453 94.3176C304.295 101.049 318.153 105.049 314.885 111.13C312.807 115 305.759 112.561 304.942 108.301C304.397 105.504 305.078 101.765 302.388 100.496C297.246 98.1224 293.501 110.154 288.598 107.39C288.904 104.691 289.21 101.992 289.517 99.293C283.184 98.8053 276.68 100.984 272.049 105.147C272.628 102.545 273.207 99.9109 273.786 97.3094C266.907 93.6672 260.097 106.577 252.708 104.106C259.859 106.447 275.829 93.1469 263.264 87.5211C260.268 86.1553 253.968 88.269 250.631 88.0414C244.809 87.6511 238.679 84.2041 232.789 84.822Z" fill="#D4DEEF"/>
<path d="M263.979 56.9203C259.109 54.5789 253.185 57.1154 249.03 60.4974C244.876 63.8795 241.471 68.237 236.534 70.4158C234.184 71.4564 231.426 72.1068 229.996 74.123C238.202 74.0255 246.374 73.4726 254.512 72.5296C254.07 75.1636 252.674 77.6676 250.631 79.4887C254.444 80.822 257.611 76.2368 258.156 72.3995C258.326 71.1963 258.462 69.863 259.45 69.1151C260.267 68.5297 261.357 68.5297 262.344 68.3671C265.783 67.8468 268.848 64.7249 268.405 61.408C267.996 58.091 263.434 55.7496 260.608 57.7333" fill="#D4DEEF"/>
<path d="M289.585 78.709C290.607 78.1887 291.152 76.9855 290.845 75.9448C285.738 76.1074 280.902 72.075 280.358 67.2297C277.463 65.4736 273.037 66.8394 271.777 69.8962C270.517 72.9531 272.798 76.8554 276.169 77.4407C271.232 79.4569 266.295 81.4731 261.357 83.4893C270.789 88.3347 281.992 77.7659 292.446 79.8797C292.446 81.0829 292.446 82.2861 292.446 83.5218C287.917 83.5869 283.456 85.5705 280.528 88.855C288.325 89.5054 296.361 87.6518 302.967 83.6519C304.84 82.5137 306.679 81.1804 308.892 80.8878C310.833 80.6276 312.74 81.213 314.681 81.4731C319.243 82.091 325.032 79.6195 324.862 75.2294C321.797 74.2538 318.494 73.8636 315.259 74.1238C314.272 68.4004 306.815 64.7257 301.333 67.2297C301.435 71.1645 303.342 75.0343 306.474 77.5708C303.376 80.1723 298.541 80.6276 294.965 78.6765C293.263 77.7659 291.696 76.3025 289.756 76.3025C287.644 76.3025 284.92 77.7334 283.865 76.0099" fill="#D4DEEF"/>
<path d="M295.477 50.2218C287.781 49.3438 279.848 50.612 272.867 53.7989C276.647 55.4249 280.392 57.0508 284.172 58.6768C285.023 59.0345 285.909 59.4248 286.862 59.4248C287.679 59.4248 288.496 59.0996 289.245 58.7744C292.889 57.2785 296.498 55.7826 300.142 54.2867C299.529 53.4087 298.882 52.5307 298.269 51.6526C299.903 52.6933 302.321 51.1649 302.457 49.3113C302.559 47.4577 300.925 45.7992 299.052 45.2464C297.179 44.6935 295.17 44.9862 293.263 45.4415C291.05 45.9293 288.871 46.6122 286.76 47.4577C287.849 49.669 290.063 51.36 292.548 51.9453C292.582 52.8233 292.616 53.7014 292.685 54.5794" fill="#D4DEEF"/>
<path d="M349.207 51.3277C347.539 51.3927 346.551 49.5066 346.449 47.9131C346.381 46.3197 346.722 44.5962 345.905 43.1978C343.861 39.7833 338.379 42.3198 334.327 41.6694C331.91 41.3117 329.935 39.6858 327.619 38.8728C325.304 38.0598 322.069 38.5151 321.422 40.7589C320.673 43.2629 323.908 45.3116 326.632 45.3441C329.356 45.4092 332.182 44.4661 334.804 45.2791C335.281 45.4417 335.757 45.6693 336.098 46.0595C338.039 48.531 331.093 50.3196 331.74 53.3439C332.046 54.8397 333.987 55.295 335.587 55.4576C337.937 55.6852 340.252 55.9454 342.602 56.173C345.019 56.4332 347.743 56.5958 349.684 55.1975C351.625 53.7991 351.693 50.157 349.31 49.6041" fill="#D4DEEF"/>
<path d="M361.602 74.904C362.964 73.3756 362.147 70.8391 360.411 69.6684C358.708 68.4977 356.461 68.3677 354.384 68.3352C348.255 68.3026 342.125 69.0506 336.201 70.579C334.362 71.0342 332.455 71.5871 330.616 71.2294C328.778 70.8391 327.041 69.1481 327.45 67.3921C324.93 70.1237 327.96 74.6439 331.638 75.5869C335.315 76.53 339.231 75.4569 343.045 75.652C346.858 75.8471 351.217 78.3511 350.808 81.9607C350.706 82.8387 350.366 83.7493 350.706 84.5297C351.149 85.4728 352.409 85.7655 353.498 85.7004C358.572 85.4728 362.454 79.7819 360.615 75.2618C359.389 75.4569 358.095 74.774 357.584 73.7008C359.798 72.8553 361.534 70.9367 362.079 68.7254C357.959 67.2295 353.124 67.5872 349.276 69.6684" fill="#D4DEEF"/>
<path d="M359.457 94.9356C361.568 93.4722 360.172 89.8626 357.687 89.1796C355.201 88.4642 352.545 89.7325 350.502 91.2609C350.366 93.3096 350.23 95.3583 350.093 97.407C347.608 96.9192 344.952 97.407 342.841 98.7403C346.484 99.6834 349.481 102.643 350.332 106.155C346.859 108.431 341.342 106.838 339.776 103.098C339.061 101.374 338.789 99.033 336.916 98.4476C334.294 97.6347 332.728 101.635 333.953 104.008C337.154 110.285 346.961 109.894 352.443 114.545C354.418 116.236 357.38 118.61 359.049 116.658C360.377 115.098 358.64 112.919 357.04 111.618C358.981 111.846 361.024 112.008 362.794 111.195C364.565 110.382 365.757 108.236 364.803 106.61C364.293 105.764 363.373 105.244 362.59 104.659C359.696 102.415 358.64 98.2525 360.138 95.0331C359.083 94.6104 358.061 94.1876 357.006 93.7649" fill="#D4DEEF"/>
<path d="M455.412 78.2535C448.806 74.4487 440.566 73.2781 433.075 75.0666C427.661 76.3674 422.588 79.1315 417.037 79.4892C408.899 80.0421 401.102 75.1642 396.675 68.6278C402.838 64.5954 411.862 72.4976 418.365 68.9855C420.238 67.9774 421.532 66.1238 423.507 65.2783C425.516 64.4328 427.831 64.7905 430.011 65.1482C440.43 66.9368 450.815 68.6928 461.235 70.4814C462.461 66.2214 458.647 61.376 454.05 61.2784C459.498 59.1972 464.946 57.0835 470.395 55.0022C473.153 53.9291 476.081 52.7259 477.579 50.2869C479.077 47.848 478.022 43.8806 475.059 43.5229C487.624 39.3605 499.78 34.0923 511.357 27.8812C510.2 25.9625 509.042 24.0439 507.85 22.0927C515.92 22.8732 524.262 20.5318 530.562 15.6864C521.538 14.971 512.345 15.784 503.594 18.0929C518.644 19.9139 534.205 17.475 547.86 11.2313C542.956 7.13386 534.001 12.467 529.166 8.30456C527.702 7.06882 526.987 5.18271 525.522 3.94697C523.718 2.45109 521.13 2.22345 518.712 2.12589C494.162 0.857643 469.509 1.54055 445.095 4.10957C441.077 4.53232 435.969 6.02821 435.765 9.898C429.908 9.67036 424.052 9.44273 418.229 9.21509C414.007 14.6133 405.733 16.727 399.263 14.0279C397.799 16.2393 396.335 18.4506 394.87 20.6619C398.957 23.361 404.064 24.5967 409.001 24.0764C412.032 29.9949 421.804 31.2957 426.401 26.3853C428.444 33.1168 438.966 31.8485 445.231 28.1738C451.462 24.4991 459.498 19.8164 465.355 24.0439C457.592 29.7998 447.615 32.759 437.808 32.2713C440.26 35.1004 442.711 37.9296 445.197 40.7588C439.17 41.1165 433.824 37.4418 428.546 34.6452C423.269 31.8485 416.356 29.8648 411.487 33.2794C415.88 36.7264 420.306 40.1409 424.699 43.588C412.577 37.4743 400.421 31.3607 388.299 25.2796C384.757 23.4911 380.637 21.67 376.858 23.0033C373.078 24.3366 371.954 30.6453 375.836 31.6534C372.84 32.1737 370.252 34.4826 369.469 37.2792C376.653 37.8321 383.736 39.7507 390.171 42.8725C387.141 43.8156 384.11 44.7261 381.08 45.6692C387.992 47.8155 394.904 49.9617 401.817 52.108C403.213 52.5308 404.847 52.986 406.141 52.2706C407.435 51.5877 407.912 50.0593 408.627 48.8236C410.806 45.1164 416.39 43.6855 420.204 45.8643C419.319 47.848 418.433 49.8642 417.582 51.8479C420.851 51.8804 424.12 51.8804 427.389 51.9129C427.457 53.6364 427.491 55.3274 427.559 57.0509C432.292 57.7664 437.161 57.6363 441.86 56.6607C440.158 62.7093 430.93 63.2621 425.175 60.2053C419.421 57.1485 414.892 51.9129 408.559 50.2219C410.568 54.7421 413.803 58.7419 417.855 61.7662C409.41 60.4655 400.625 61.2784 392.589 64.0751C391.806 62.4491 391.023 60.8557 390.24 59.2297C383.634 61.8638 384.621 70.9692 386.766 77.5056C387.413 79.4242 388.06 81.3754 389.388 82.9363C392.385 86.4484 397.765 86.8711 402.532 87.0012C409.682 87.1963 416.867 87.3914 424.018 87.5865C433.96 87.7491 455.787 92.2043 455.412 78.2535Z" fill="#D4DEEF"/>
<path d="M376.856 70.9037C378.831 69.6029 382.372 70.7086 383.292 68.5948C383.973 67.0014 382.202 65.5055 380.636 64.66C379.07 63.8145 377.197 62.5137 377.639 60.8552C376.243 61.0504 374.779 60.7577 373.587 60.0423C376.584 59.2943 379.58 58.5464 382.577 57.7984C383.734 57.5058 385.165 56.5302 384.484 55.6196C384.245 55.2944 383.837 55.1644 383.428 55.0668C381.589 54.6115 379.546 54.5465 377.912 53.6034C376.277 52.6279 375.358 50.2214 376.788 48.9857C375.767 48.8882 374.745 48.8231 373.724 48.7256C373.69 47.9451 373.621 47.1646 373.587 46.3842C368.276 46.2541 362.998 45.8313 357.72 45.1484C356.937 48.5304 360.376 52.1401 363.985 51.7498C364.564 51.6848 365.211 51.5547 365.688 51.8799C366.13 52.1726 366.232 52.6929 366.471 53.1482C367.152 54.4815 369.025 55.1319 370.455 54.514C370.046 55.4896 369.331 56.3676 368.446 56.9855C370.148 57.8635 372.055 58.4163 373.962 58.6439C372.43 59.7821 370.659 60.5951 368.752 60.9853C369.535 61.6032 370.319 62.1885 371.102 62.8064C369.093 62.8389 367.084 62.8714 365.109 62.904C364.496 64.6925 366.335 66.416 368.173 67.1315C370.216 67.9119 380.125 73.928 374.166 76.6271C370.795 78.1555 369.365 72.8223 370.557 70.8061C372.43 74.9686 371.851 80.7895 375.188 84.4317C377.605 87.0983 381.283 87.5861 383.598 84.074C387.65 77.9929 377.844 76.1718 376.856 70.9037Z" fill="#D4DEEF"/>
<path d="M436.172 540.027C433.823 546.043 441.416 553.067 447.647 550.66C449.452 549.945 451.018 548.677 452.925 548.352C458.271 547.441 461.37 553.88 462.493 558.985C463.787 564.806 465.047 571.017 462.8 576.546C460.076 583.18 452.653 587.797 451.768 594.887C451.052 600.675 455.036 606.626 452.993 612.122C452.074 614.593 449.997 616.577 449.009 619.048C447.273 623.471 449.35 628.349 451.393 632.674C458.203 646.982 465.047 661.291 471.857 675.599C473.39 678.819 475.024 682.168 477.986 684.315C480.336 686.006 483.264 686.786 485.75 688.314C489.802 690.786 492.288 694.981 494.603 699.013C498.893 706.46 503.218 714.037 505.057 722.362C507.542 733.711 505.193 745.451 502.843 756.833C499.404 773.45 495.965 790.1 492.526 806.717C488.746 825.025 484.967 843.301 481.187 861.61C485.239 859.268 488.236 855.333 489.359 850.943C491.3 862.845 488.849 875.333 482.515 885.739C481.97 881.251 481.426 876.764 480.881 872.276C476.25 881.837 473.866 892.34 473.934 902.877C473.934 904.763 474.105 906.844 475.501 908.21C476.795 909.51 478.838 909.803 480.506 910.616C484.116 912.437 485.682 917.25 483.741 920.697C485.648 921.12 487.589 921.543 489.496 921.965C492.458 924.209 485.444 927.364 485.478 930.973C485.478 932.437 486.737 933.607 487.895 934.583C493.309 939.136 498.723 943.721 504.171 948.273C507.951 949.347 511.867 950.42 515.748 949.834C519.63 949.249 523.478 946.517 523.818 942.778C524.329 937.64 518.711 934.193 515.102 930.355C509.483 924.404 508.121 915.657 509.517 907.754C510.913 899.852 514.795 892.568 518.575 885.446C516.123 884.568 513.671 883.69 511.186 882.78C511.356 877.512 517.008 874.227 520.55 870.195C527.019 862.845 526.304 850.716 519.017 844.114C521.707 842.293 524.397 840.472 527.121 838.684C529.335 842.066 531.548 845.448 533.761 848.83C539.277 844.602 541.354 836.7 538.596 830.456C551.127 833.513 565.292 823.725 566.143 811.367C563.045 811.27 560.593 807.855 561.615 805.059C562.636 802.262 566.756 801.026 569.276 802.75C567.88 806.164 572 809.904 575.814 809.449C579.627 808.993 582.488 805.742 583.747 802.262C585.041 798.815 585.144 795.075 585.859 791.466C587.016 785.677 589.74 780.181 593.724 775.694C597.027 771.954 601.283 768.767 603.224 764.247C604.654 760.93 604.654 757.255 605.267 753.711C607.242 742.166 616.129 731.955 627.673 727.988C628.149 733.158 636.696 732.085 640.68 728.573C646.673 723.338 650.691 716.118 651.917 708.476C652.972 701.777 652.053 694.526 655.356 688.51C656.752 685.973 658.897 683.762 659.714 680.998C660.395 678.624 660.055 676.12 660.191 673.648C660.906 660.445 675.718 650.007 674.015 636.901C672.892 628.381 665.128 622.268 657.978 617.097C647.013 609.195 635.368 601 621.748 599.374C613.099 598.334 603.769 599.96 596.006 596.22C599.479 596.025 601.93 592.578 602.101 589.261C602.271 585.944 600.773 582.789 599.309 579.798C598.321 577.781 597.334 575.733 596.346 573.716C592.328 565.489 585.722 555.831 576.324 557.132C573.532 557.522 570.468 558.855 568.084 557.392C565.905 556.059 565.667 553.164 564.475 550.953C559.844 542.335 542.24 545.847 539.584 536.482C538.903 534.043 539.482 531.084 537.643 529.263C536.145 527.799 533.727 527.767 531.582 527.832C521.844 528.19 512.139 528.515 502.401 528.872C502.06 532.515 499.575 535.929 496.101 537.458C496.612 539.604 497.123 541.75 497.634 543.864C496.85 547.669 490.142 547.213 488.406 543.701C486.669 540.189 488.338 536.059 490.415 532.71C492.458 529.36 494.978 525.978 494.944 522.076C490.517 520.06 486.056 524.45 482.856 527.994C479.655 531.539 473.424 534.628 470.495 530.856C470.87 534.726 471.244 538.563 471.619 542.433C465.354 547.669 454.049 545.36 450.542 538.173C448.124 541.035 445.434 544.059 441.723 545.067C438.011 546.075 433.142 543.831 433.176 540.157C435.083 548.124 443.323 554.237 451.87 554.042" fill="#D4DEEF"/>
<path d="M427.32 463.769C430.283 466.631 434.88 462.338 439.068 461.818C443.12 461.33 446.423 464.582 449.453 467.184C452.484 469.785 457.217 471.964 460.383 469.492C461.882 475.508 470.667 478.5 475.842 474.793C475.366 476.907 478.294 478.37 480.541 477.98C482.789 477.59 484.764 476.256 487.045 476.094C490.314 475.866 493.48 478.63 493.515 481.785C493.583 482.923 491.914 483.346 490.722 483.053C489.565 482.76 488.271 482.175 487.249 482.793C486.534 483.216 486.262 484.061 485.751 484.711C483.912 487.085 480.099 486.175 477.17 485.232C474.242 484.256 470.122 483.996 468.998 486.728C478.158 488.451 487.692 488.321 496.783 486.337C496.034 487.02 496.579 488.354 497.533 488.744C498.486 489.134 499.576 488.906 500.563 488.679C504.445 487.801 508.327 486.89 512.208 486.012C514.558 487.378 517.656 487.378 520.006 486.045C519.836 487.053 519.699 488.093 519.529 489.102C524.092 490.988 529.983 489.167 532.536 485.102C526.067 484.094 519.631 483.053 513.162 482.045C508.531 481.297 503.764 480.549 499.712 478.273C495.728 476.029 492.561 472.387 488.135 471.021C481.971 469.102 474.923 472.094 468.93 469.753C463.141 467.476 459.498 460.582 453.233 460.485C451.19 460.452 449.045 461.167 447.206 460.354C442.507 458.306 443.12 454.046 437.059 456.257C435.969 456.712 428.342 464.745 427.32 463.769Z" fill="#D4DEEF"/>
<path d="M946.182 346.797C943.219 352.586 941.891 359.057 943.049 365.398C945.058 376.325 953.911 386.406 951.425 397.267C947.544 396.292 943.696 395.349 939.814 394.406" fill="#D4DEEF"/>
<path d="M987.791 200.591C987.553 201.274 987.247 201.924 986.975 202.574L987.791 200.591Z" fill="#D4DEEF"/>
<path d="M988.541 196.266C988.473 193.664 987.316 191.193 985.545 189.144L988.541 196.266Z" fill="#D4DEEF"/>
</g>
</svg>
