<svg width="456" height="456" viewBox="0 0 456 456" fill="none" xmlns="http://www.w3.org/2000/svg">
<path d="M62.8742 301.4C58.7409 301.4 55.4742 300.467 53.0742 298.6C50.6742 296.6 48.7409 293.333 47.2742 288.8C45.2742 282.133 43.7409 273.733 42.6742 263.6C41.7409 253.333 41.2742 240.733 41.2742 225.8C41.2742 216.6 41.6076 207.4 42.2742 198.2C43.0742 188.867 44.0742 180.4 45.2742 172.8C46.4742 165.067 47.7409 159.067 49.0742 154.8C50.5409 150.267 52.2742 147.133 54.2742 145.4C56.2742 143.667 58.5409 142.8 61.0742 142.8C63.7409 142.8 65.8742 143.733 67.4742 145.6C69.0742 147.333 70.3409 150.467 71.2742 155C72.0742 159.4 72.6742 164.8 73.0742 171.2C73.6076 177.6 73.8742 184.467 73.8742 191.8C73.8742 201.8 73.4076 212.333 72.4742 223.4C71.5409 234.467 70.2742 245.333 68.6742 256C67.2076 266.667 65.4076 276.467 63.2742 285.4L57.6742 282.6C61.1409 278.333 65.0742 275 69.4742 272.6C74.0076 270.2 78.1409 269 81.8742 269C84.9409 269 87.2742 269.867 88.8742 271.6C90.6076 273.2 91.4742 275.733 91.4742 279.2C91.4742 282.667 89.9409 286.133 86.8742 289.6C83.9409 293.067 80.2742 295.933 75.8742 298.2C71.4742 300.333 67.1409 301.4 62.8742 301.4ZM127.234 147.6C132.567 147.6 136.367 149.067 138.634 152C141.034 154.933 142.234 158.333 142.234 162.2C142.234 167 140.767 170.733 137.834 173.4C135.034 175.933 131.034 177.2 125.834 177.2C120.767 177.2 116.967 175.8 114.434 173C111.9 170.067 110.634 166.667 110.634 162.8C110.634 157.733 112.167 153.933 115.234 151.4C118.3 148.867 122.3 147.6 127.234 147.6ZM128.434 192.2C132.7 192.2 136.034 196.2 138.434 204.2C140.967 212.2 142.234 224.933 142.234 242.4C142.234 263.867 140.7 279.333 137.634 288.8C134.567 298.267 129.9 303 123.634 303C118.834 303 115.3 299.533 113.034 292.6C110.767 285.533 109.634 273.267 109.634 255.8C109.634 234.333 111.367 218.4 114.834 208C118.434 197.467 122.967 192.2 128.434 192.2Z" fill="#fd7e14"/>
<path d="M270.265 302.6C267.465 302.6 264.932 301.867 262.665 300.4C260.532 298.933 258.865 296.4 257.665 292.8C256.465 289.067 255.865 283.933 255.865 277.4C255.865 267.933 256.065 257.8 256.465 247C256.865 236.067 257.398 225.067 258.065 214C258.865 202.8 259.598 192 260.265 181.6H259.465C254.798 200.933 249.798 215.6 244.465 225.6C239.132 235.467 233.198 240.4 226.665 240.4C222.665 240.4 218.932 238.6 215.465 235C212.132 231.267 208.865 225.067 205.665 216.4C202.598 207.6 199.198 195.667 195.465 180.6H194.665C195.065 187.667 195.465 195.2 195.865 203.2C196.265 211.2 196.598 219.267 196.865 227.4C197.265 235.533 197.532 243.267 197.665 250.6C197.932 257.933 198.065 264.467 198.065 270.2C198.065 275.133 197.598 279.667 196.665 283.8C195.865 287.933 194.332 291.2 192.065 293.6C189.932 296 186.932 297.2 183.065 297.2C177.865 297.2 173.998 295.133 171.465 291C168.932 286.733 167.665 279.733 167.665 270C167.665 264.267 167.798 257.6 168.065 250C168.465 242.267 168.932 234.333 169.465 226.2C169.998 217.933 170.665 210 171.465 202.4C172.265 194.667 173.132 187.933 174.065 182.2C175.665 173.133 177.865 166.733 180.665 163C183.465 159.133 187.198 157.2 191.865 157.2C195.732 157.2 199.532 158.933 203.265 162.4C206.998 165.733 210.865 171.467 214.865 179.6C218.865 187.6 223.065 198.667 227.465 212.8H228.265C232.532 198.4 236.598 186.867 240.465 178.2C244.332 169.4 248.065 163.067 251.665 159.2C255.265 155.333 258.665 153.4 261.865 153.4C266.932 153.4 270.798 155.4 273.465 159.4C276.132 163.267 278.332 168.8 280.065 176C282.065 184.267 283.665 193.933 284.865 205C286.065 216.067 286.932 227.4 287.465 239C288.132 250.467 288.465 261.2 288.465 271.2C288.465 282.667 286.798 290.8 283.465 295.6C280.132 300.267 275.732 302.6 270.265 302.6ZM401.33 303C396.797 303 393.664 301.267 391.93 297.8C390.33 294.2 389.397 288.533 389.13 280.8L391.13 281.8C383.664 296.333 369.53 303.6 348.73 303.6C339.264 303.6 331.397 301.933 325.13 298.6C318.864 295.133 314.197 290.6 311.13 285C308.197 279.267 306.73 273.067 306.73 266.4C306.73 254.933 310.73 245.867 318.73 239.2C326.73 232.4 337.33 229 350.53 229C359.197 229 366.73 230.267 373.13 232.8C379.53 235.333 384.997 238.867 389.53 243.4L386.13 243C385.197 229.533 382.264 219.933 377.33 214.2C372.53 208.333 365.664 205.4 356.73 205.4C351.53 205.4 346.73 206.2 342.33 207.8C337.93 209.4 333.864 211.067 330.13 212.8C326.53 214.4 323.13 215.2 319.93 215.2C316.73 215.2 314.197 214.133 312.33 212C310.597 209.867 309.73 207.133 309.73 203.8C309.73 199 311.997 194.467 316.53 190.2C321.197 185.933 327.33 182.467 334.93 179.8C342.53 177.133 350.797 175.8 359.73 175.8C370.53 175.8 379.797 178.4 387.53 183.6C395.264 188.8 401.13 196.4 405.13 206.4C408.597 214.933 411.064 224.467 412.53 235C413.997 245.533 414.73 256.8 414.73 268.8C414.73 277.867 414.264 284.867 413.33 289.8C412.397 294.733 410.93 298.2 408.93 300.2C407.064 302.067 404.53 303 401.33 303ZM357.13 280.6C361.53 280.6 365.997 280 370.53 278.8C375.064 277.467 378.864 275.533 381.93 273C384.997 270.467 386.53 267.333 386.53 263.6C386.53 260.4 385.197 257.8 382.53 255.8C379.997 253.667 376.597 252.067 372.33 251C368.197 249.933 363.73 249.4 358.93 249.4C350.797 249.4 344.597 250.8 340.33 253.6C336.197 256.4 334.13 260.133 334.13 264.8C334.13 269.867 336.064 273.8 339.93 276.6C343.93 279.267 349.664 280.6 357.13 280.6Z" fill="white"/>
</svg>
